<?xml version="1.0" encoding="utf-8"?>
<!-- Generator: Adobe Illustrator 22.1.0, SVG Export Plug-In . SVG Version: 6.00 Build 0)  -->
<svg version="1.1" id="Layer_1" xmlns="http://www.w3.org/2000/svg" xmlns:xlink="http://www.w3.org/1999/xlink" x="0px" y="0px"
	 viewBox="0 0 3300 3300" style="enable-background:new 0 0 3300 3300;" xml:space="preserve">
<style type="text/css">
	.st0{fill:#FCF1F5;}
	.st1{fill:#FFFFFF;}
	.st2{fill:#DF5D8E;}
</style>
<g>
	<g>
		<path class="st0" d="M1722,3302c-46,0-92,0-138,0c-14.1-2.7-28.4-1.3-42.6-1.7c-55.4-1.6-110.1-9.4-164.6-18.4
			c-137.2-22.7-269-62.9-396-119.4c-107.9-48-209.1-107.3-304.3-177.1c-57.5-42.3-111.8-88.2-163.7-137.3
			c-93.9-88.9-175.2-187.9-245.9-295.9c-37.6-57.5-71.5-117.2-101.3-179.1c-46.7-96.6-83.9-196.7-111.1-300.4
			c-19.6-74.9-34-150.8-42.7-227.7c-4.3-38.3-8.1-76.7-8.1-115.4c0-9.8,0.3-19.8-1.8-29.6c0-32,0-64,0-96c2.3-8.4,1.7-17.2,1.7-25.6
			c0.7-72.9,10.1-144.8,22.6-216.4c17.4-99.8,44.4-196.9,80.1-291.7C152.6,947.5,213,832,286.6,723.3
			c40.4-59.7,85.2-115.9,132.8-170c31.1-35.3,63.9-68.9,98-101.2c49.4-46.8,101.3-90.6,156.3-130.7
			c52.8-38.6,107.5-74.3,164.2-106.6c77.7-44.3,158.7-81.9,242.6-112.9c80.2-29.6,162.2-52.8,246-69.7
			c53.6-10.8,107.6-18.9,162-24.4c35.8-3.6,71.7-4.9,107.7-4.7c3.2,0,6.6,1.1,9.7-1c32,0,64,0,96,0c2,1.8,4.5,1,6.7,1
			c85.3-0.8,169.4,10.2,253,25.6c119.5,22.1,234.9,57.7,346.3,105.9c67.3,29.1,132.6,62.5,195.4,100.5
			c66.8,40.4,131.1,84.5,191.5,134.1c34,27.9,66.6,57.3,98.8,87.4c65.9,61.7,125,129.3,179.5,201c49.9,65.6,94,135,133.4,207.5
			c48.2,88.7,88.1,180.9,119.1,277c31.9,98.9,54.8,199.7,67.4,303c5.1,42.1,8.2,84.1,7.8,126.4c0,2.2-0.8,4.7,1,6.7
			c0,49.3,0,98.7,0,148c-1.8,2-1,4.5-1,6.7c1.1,95.2-14.6,188.4-34.6,281c-19.2,88.8-46.9,175-80.8,259.3
			c-38.9,96.7-87.1,188.7-143.6,276.3c-36.7,56.9-76.7,111.5-120.3,163.3c-41.6,49.5-85.7,96.8-132.9,141.1
			c-81.1,76.1-168.4,144.3-263.2,202.8c-54.8,33.9-111.3,64.5-169.4,92.2c-53.9,25.7-109.3,47.7-165.8,67.1
			c-72.9,25.1-147.3,44.8-222.9,59.6c-50,9.8-100.5,16.7-151.3,21.6c-28.9,2.8-57.8,3.7-86.7,4C1727.1,3301,1724.4,3300.1,1722,3302
			z"/>
		<path class="st1" d="M1606,2c-2.3,2.8-5.5,2.1-8.4,1.9c-20-1.3-39.9,1-59.7,2.6c-24.3,1.9-48.8,3.6-73.1,6.9
			c-18,2.5-36.1,4.4-54.1,6.8c-20.6,2.8-41.1,6.9-61.6,10.4c-36.6,6.2-72.7,14.9-108.6,24c-31.2,7.8-62.1,17-92.7,27.1
			c-40.1,13.2-80,26.9-118.9,43.2c-44.2,18.5-88,37.7-130.4,60.1c-42.6,22.5-84.9,45.6-125.1,72.2c-21.9,14.4-43.9,28.6-65.5,43.5
			c-30.9,21.2-60.5,44.2-90.1,67.1c-14.9,11.6-28.7,24.6-43.2,36.7c-41.4,34.6-79.4,72.8-117.1,111.4c-17.1,17.6-33,36.4-49.4,54.6
			c-18.6,20.8-35.6,42.8-53.4,64.3c-16,19.4-30.7,39.9-45.3,60.5c-17,24.1-33.8,48.5-49.5,73.6c-16.3,26.2-32.2,52.7-47.4,79.6
			c-14.4,25.5-27.6,51.6-40.8,77.8c-18.8,37.5-35.6,75.8-51.3,114.7c-14,34.5-26.3,69.7-37.9,105c-15.4,46.6-28.3,94-38.6,142.1
			c-6.7,31.4-13.4,62.8-18.4,94.5c-3.2,20.2-6.5,40.5-9.1,60.8c-1.9,15.4-3.2,31-4.9,46.4c-2.3,20.1-2.2,40.3-5.5,60.3
			c-0.6,3.9-0.5,8-0.1,12c1.1,13-2.6,25.8-2.3,38.7c0,1.1-1.2,2.3-1.8,3.4C2,1070,2,536,2,2C536.7,2,1071.3,2,1606,2z"/>
		<path class="st1" d="M2,1700c0.6,0.8,1.6,1.6,1.6,2.4c0.3,9,2.1,17.9,2,26.7c-0.2,17,1.3,33.9,2.7,50.7
			c1.5,17.8,2.8,35.6,5.1,53.3c1.8,14.1,3.4,28.2,4.9,42.4c1.7,17.1,4.9,34,7.9,51c3.1,17.3,5.8,34.6,9.4,51.7
			c5.9,27.9,12.3,55.6,19.1,83.3c11.4,46.5,25.6,92.1,41.3,137.3c12.8,36.7,27.3,72.8,42.6,108.5c14.6,34.3,30.5,68,47.7,101
			c19.5,37.4,40.5,74,62.6,110c29,47.3,60.7,92.7,94.1,137c14.1,18.8,29.5,36.7,44.4,54.9c14.5,17.8,30,34.6,45.2,51.7
			c9.8,10.9,20.9,20.6,30.1,31.9c9.9,12.2,21.2,23,32.4,33.9c20.8,20.1,41.6,40.2,63.4,59.2c18.2,15.9,36.9,31.3,55.6,46.6
			c45.5,37.3,93.3,71.4,142.3,103.7c26.9,17.7,54.5,34.4,82.5,50.2c29.8,16.9,59.9,33.2,90.7,48.2c42.1,20.5,85.1,39.1,128.8,56.1
			c28.8,11.2,57.9,21.5,87.4,31c53.7,17.3,108.2,31.6,163.3,43.5c17.8,3.8,35.7,7.5,53.6,10.6c19.9,3.4,39.7,7,59.8,9.2
			c18.7,2,37.3,5.7,56,7.3c9.6,0.8,19.1,2,28.7,2.7c13.8,1,27.7,1.6,41.5,3.4c8.5,1.1,17.3,0.3,26,0.5c3.2,0.1,6.8-1.1,9.4,2
			c-527.3,0-1054.7,0-1582,0C2,2768,2,2234,2,1700z"/>
		<path class="st1" d="M3302,1578c-2.1-1.7-2-4-2-6.4c0-5.3,0-10.7,0-16c0-17.9-1.7-35.7-3.8-53.5c-0.9-7.5-1-15.1-1.9-22.8
			c-3.5-30.2-7.3-60.4-12-90.4c-5.7-36.7-13.3-72.9-21.4-109.1c-12.5-55.8-28.3-110.6-47-164.5c-13-37.3-27.1-74.2-42.5-110.7
			c-18.1-43-39-84.6-60.4-126c-18.2-35.1-38.8-68.8-59.6-102.5c-24.8-40.1-51.8-78.7-80-116.4c-14.2-19.1-28.6-38.2-44.6-56
			c-12.8-14.3-24.4-29.7-36.8-44.3c-7.1-8.3-14.7-16.4-22.3-24.1c-20.1-20.4-38.5-42.4-59.5-61.9c-19-17.7-37.6-35.7-57-52.8
			c-21.6-19.1-43.6-37.8-66-56c-20.6-16.7-41.6-32.9-63.4-48c-12.8-8.9-24.8-18.9-38-27.3c-25.6-16.1-50.2-33.8-76.4-48.7
			c-15.3-8.7-30.3-18-45.6-26.7c-14.4-8.2-29-16.2-43.8-23.9c-19.2-9.9-38.5-19.8-58.1-29c-37.9-17.8-76.1-34.9-115.4-49.4
			c-28.4-10.5-56.6-21.2-85.5-30.3c-49-15.4-98.5-29.1-148.8-40.1c-32.7-7.1-65.5-13.3-98.4-18.8c-16.9-2.8-34.1-4.6-51.1-7
			c-20.6-2.9-41.5-3.5-62-7.5c-1-0.2-2-0.2-3-0.2c-15,1.1-29.8-1.6-44.7-2.5c-14.6-0.9-29.2-1.3-43.8-1.5c-2,0-4-0.2-5.4-2
			c533.3,0,1066.7,0,1600,0C3302,527.3,3302,1052.7,3302,1578z"/>
		<path class="st1" d="M1722,3302c3-3.2,6.9-2.1,10.4-1.9c17.7,1.1,35.3-1.2,52.7-2.6c22.4-1.8,44.8-4.2,67.1-7.1
			c17.4-2.3,34.8-4.3,52.2-6.7c23.6-3.3,47.1-7.5,70.4-12.4c31.1-6.5,62.3-13,93-21.3c27.2-7.4,54.4-14.8,81.3-23.3
			c33.9-10.8,67.5-22.3,100.7-35.1c23.5-9.1,46.8-18.9,69.9-29.1c32.6-14.5,64.5-30.3,96.2-46.5c23.1-11.8,45.6-24.7,68-37.7
			c34.3-19.8,67.5-41.1,100.3-63.2c29.4-19.8,58.6-40.2,86-62.8c22-18.1,44.2-36,65.8-54.7c39.6-34.2,76.8-70.8,113.3-108.1
			c16.9-17.3,32.7-35.7,48.7-54c13.3-15.3,26.7-30.5,39.4-46.1c14.7-18,28.6-36.5,42.5-55.2c13.3-17.8,26.6-35.7,38.7-54.3
			c18.1-27.8,36.8-55.3,53.5-84c23.9-41.2,47.2-82.6,67.6-125.6c12.9-27.3,25.3-54.9,37-82.8c19.6-46.7,36.3-94.3,51.9-142.3
			c13.5-41.7,24.2-84.1,34-126.8c5.5-23.9,10.4-47.9,14.9-71.9c3.5-18.5,5.4-37.3,8.8-55.9c3.3-18.2,5-36.7,7.2-55.1
			c1.1-9.1,1.9-18.5,2.9-27.7c1.3-12.2,1.6-24.4,3.2-36.6c1.5-11.5,0.4-23.3,0.6-34.9c0.1-3.5-1.3-7.4,1.9-10.4
			c0,525.3,0,1050.7,0,1576C2775.3,3302,2248.7,3302,1722,3302z"/>
		<path class="st2" d="M2455.7,1298c2,36-7.4,69.8-20.1,102.9c-11.7,30.6-28,58.8-47.6,85.1c-21.6,28.9-45.5,55.8-73.9,78.1
			c-36.9,29-77.9,50.7-122.3,66.3c-29.3,10.3-59.4,17.2-90.1,21.1c-36.2,4.6-72.3,2.6-107.9-6.2c-21.2-5.2-41.2-13.1-60.6-22.8
			c-24.7-12.3-50-8.4-69.6,11.4c-17.8,18-34.8,36.7-52.2,55c-13.3,13.9-27,27.5-40.3,41.4c-17.2,18.1-34.2,36.4-51.2,54.6
			c-13.2,14.1-26.4,28.1-39.7,42.2c-18.5,19.6-36.9,39.2-55.4,58.9c-13.9,14.8-27.9,29.5-41.7,44.2c-25.2,26.9-50.4,53.9-75.6,80.8
			c-16.9,18-33.9,35.7-50.8,53.6c-26.4,28.1-52.8,56.3-79.2,84.4c-16.2,17.2-32.5,34.3-48.7,51.5c-24.6,26.2-49,52.6-73.6,78.8
			c-16.2,17.2-32.5,34.3-48.7,51.5c-25.3,26.9-50.1,54.2-75.7,80.8c-21.6,22.5-48.3,36.9-78.9,42c-48.4,8.1-93.1-1.6-133.2-30.9
			c-36.8-26.9-58.4-63.6-66.5-107.7c-6.7-36.9-2.2-72.9,16.4-106.3c8.7-15.7,20.9-28.3,33.7-40.5c16.4-15.6,32.8-31.2,49.3-46.6
			c25-23.4,50.2-46.6,75.2-70c19.2-18,38-36.3,57.2-54.3c25.9-24.4,52.1-48.6,78-72.9c8.5-8,16.7-16.3,25.1-24.3
			c24.9-23.6,49.7-47.2,74.7-70.7c21.5-20.3,43.2-40.5,64.8-60.8c28.9-27.1,57.8-54.1,86.6-81.3c29.8-28.1,59.4-56.3,89.2-84.4
			c21.5-20.3,43.2-40.5,64.8-60.8c26.1-24.7,52-49.6,78.3-74.1c9-8.4,18.1-16.7,26.7-25.4c18.1-18.3,22.3-39.3,13-63.2
			c-3.8-9.6-7.7-19.1-11.2-28.8c-12.7-35.3-20-71.4-20.7-109.2c-0.7-40.4,6-79.4,18.5-117.6c14.2-43.4,36-82.9,63.2-119.5
			c26-34.9,56.4-65.6,92.4-90.2c28.1-19.2,58.3-34.6,90.5-45.9c23-8.1,46.4-14.8,70.5-17.3c23.5-2.4,47.1-1.2,70.2,5.8
			c23.7,7.2,46.3,16.6,66.9,30.5c2.8,1.9,5.6,3.6,8.2,5.8c13.7,11.6,14.6,33.4,1.8,46.1c-26.3,26.3-52.8,52.6-79,79
			c-30.1,30.2-60,60.7-90.2,90.7c-6.5,6.5-9,12.7-7,22.2c7.7,35.4,12.8,71.2,19.6,106.8c3.9,20.5,7.4,41.2,11.1,61.8
			c2.2,12.6,3.6,14.5,15.9,16.9c28.4,5.4,56.8,10.3,85.2,15.9c27.7,5.5,55.7,9,83.3,15.3c9.3,2.1,17,0.1,24.3-7.3
			c37-37.9,74.5-75.3,111.9-112.7c19.2-19.2,38.5-38.3,57.9-57.3c13.4-13.1,36.5-11.1,47.4,4c20.7,28.5,34.2,60.1,39.5,94.9
			C2456.9,1278.5,2455.7,1288.4,2455.7,1298z"/>
		<path class="st0" d="M1023.2,2230.3c28.5-1,52.8,24.2,52.7,53.6c0,24.7-19.3,51.9-53,52.4c-29.6,0.4-52.8-23.4-53.2-53.2
			C969.3,2252.8,996.5,2228.1,1023.2,2230.3z"/>
	</g>
</g>
</svg>
