<?xml version="1.0" encoding="utf-8"?>
<!-- Generator: Adobe Illustrator 22.1.0, SVG Export Plug-In . SVG Version: 6.00 Build 0)  -->
<svg version="1.1" id="Layer_1" xmlns="http://www.w3.org/2000/svg" xmlns:xlink="http://www.w3.org/1999/xlink" x="0px" y="0px"
	 viewBox="0 0 792 792" style="enable-background:new 0 0 792 792;" xml:space="preserve">
<style type="text/css">
	.st0{fill:#FCF1F5;}
	.st1{fill:#FFFFFF;}
	.st2{fill:#DF5D8E;}
</style>
<g>
	<g>
		<path class="st0" d="M422.4,792.5c-17.1,0-34.2,0-51.4,0c-0.1-0.7-0.5-1-1.1-0.9c-2.7,0.3-5.2-0.6-7.9-0.5
			c-2.4,0.1-4.8-0.4-7.1-0.6c-4.4-0.5-8.8-1.1-13.2-1.7c-5.6-0.8-11.2-1.6-16.7-2.6c-9.8-1.8-19.5-3.9-29.1-6.5
			c-7.1-1.9-14.1-3.9-21.1-6.2c-6.9-2.2-13.7-4.7-20.5-7.3c-9.7-3.8-19.2-7.8-28.6-12.3c-5-2.4-10-4.9-14.9-7.6
			c-6.6-3.7-13.2-7.4-19.7-11.3c-10.9-6.5-21.3-13.7-31.5-21.2c-9.1-6.6-17.6-13.9-26.1-21.3c-4.9-4.3-9.6-8.8-14.4-13.4
			c-3.5-3.3-6.7-6.8-10-10.3c-3.3-3.6-6.7-7.2-10-11c-4.2-4.9-8.4-9.8-12.4-14.8c-5.5-6.9-10.8-14-15.8-21.2
			c-3.3-4.8-6.4-9.7-9.6-14.6c-4.1-6.4-7.9-12.9-11.5-19.6c-4-7.3-7.9-14.6-11.4-22.1c-4.7-10-8.8-20.1-12.7-30.4
			c-4.3-11.3-7.9-22.7-11.1-34.3c-2-7.1-3.7-14.3-5.1-21.6c-1.4-7-2.7-14-3.9-21.1c-0.9-5.2-1.6-10.4-2.2-15.6
			c-0.5-4.1-0.9-8.2-1.1-12.3c-0.3-4.9-0.9-9.8-0.9-14.8c0-0.5,0-1-0.1-1.4c-0.1-0.4-0.5-0.6-0.9-0.7c0-11.2,0-22.4,0-33.6
			c1.2-0.2,0.9-1.1,1-1.9c0-2-0.2-4,0.1-6c0.6-3.3,0.5-6.7,0.8-10c0.2-2.4,0.4-4.9,0.7-7.4c0.7-5.5,1.3-11,2.2-16.5
			c0.8-5.3,1.7-10.7,2.7-16c1.2-6.4,2.7-12.7,4.2-19.1c2.2-9.5,4.8-18.8,7.9-28c2.5-7.5,5.1-15,8-22.3c3.8-9.5,7.7-18.9,12.3-28
			c3.6-7.1,7.1-14.1,11-21c4-7,8-14,12.4-20.7c3.1-4.9,6.6-9.6,9.8-14.4c3.7-5.5,7.7-10.7,11.8-15.9c4.1-5.3,8.4-10.4,12.8-15.4
			c4.5-5.1,8.9-10.2,13.7-15c5.5-5.4,10.7-11,16.4-16.1c4.3-3.8,8.5-7.6,12.9-11.4c5.1-4.4,10.3-8.6,15.6-12.6
			c5.9-4.5,11.8-8.9,18-13c5-3.3,10-6.5,15.1-9.7c9.3-5.8,18.8-11,28.5-16.1c4-2.1,8-3.9,12.1-5.8c5.6-2.6,11.4-5.1,17.1-7.5
			c10-4.1,20.1-7.8,30.3-11c6.8-2.1,13.7-4.2,20.7-5.9c10.9-2.7,21.8-5.1,32.9-6.8c6.5-1,13-2.1,19.5-2.8c1.8-0.2,3.7-0.2,5.4-0.5
			c2.5-0.5,5.1-0.5,7.6-0.7c3.4-0.3,6.8-0.9,10.2-0.6c0.7,0.1,1.3-0.1,1.4-1c14.4,0,28.8,0,43.2,0c0.1,1,0.9,1,1.6,1
			c1.7,0,3.4-0.2,5,0.1c3.1,0.5,6.2,0.4,9.3,0.8c2.2,0.3,4.4,0.3,6.6,0.6c4.3,0.6,8.6,1.2,13,1.8c3.6,0.5,7.2,0.9,10.8,1.6
			c5.9,1.1,11.8,2.3,17.8,3.6c11.5,2.4,22.7,5.6,33.9,9c7.5,2.3,14.8,5.1,22.1,7.8c9.7,3.6,19.1,7.7,28.4,12.2
			c5.3,2.5,10.5,5.2,15.7,7.8c2.6,1.3,5.1,2.7,7.5,4.2c3.9,2.2,7.7,4.6,11.5,6.8c6.4,3.6,12.3,7.9,18.5,11.9c3.2,2,6.2,4.4,9.3,6.7
			c4.2,3.1,8.4,6.1,12.4,9.3c6,4.8,11.9,9.8,17.7,14.9c4.7,4.1,9.3,8.5,13.8,12.9c3.5,3.4,7,6.8,10.1,10.5c2,2.3,4.2,4.4,6.2,6.6
			c4.4,4.9,8.8,9.9,13,15c3.4,4.3,7,8.5,10.2,12.9c7,9.5,13.8,19.3,20.1,29.4c5.4,8.7,10.5,17.5,15.1,26.6c4.9,9.4,9.6,19,13.6,28.8
			c5.3,12.9,10.1,26,14.1,39.4c1.2,4,2.3,8,3.4,12c2,7.1,3.6,14.4,5.1,21.6c1.2,5.7,2.3,11.4,3.1,17.1c0.5,3.5,1,7.1,1.5,10.6
			c0.7,4.6,1.2,9.3,1.7,13.9c0.3,2.8,0.9,5.7,0.6,8.6c-0.1,0.7,0.1,1.3,0.9,1.4c0,1,0,1.9,0,2.9c-0.8,1.1-0.8,2.2,0,3.4
			c0,15.2,0,30.4,0,45.6c-0.8,1.1-0.8,2.2,0,3.4c0,1,0,1.9,0,2.9c-0.7,0.1-1,0.5-1,1.1c0,2.2-0.1,4.4-0.4,6.7
			c-0.5,3.7-0.6,7.4-1.1,11.1c-0.5,4.2-1.3,8.3-1.8,12.5c-0.7,5.2-1.7,10.3-2.7,15.5c-0.7,3.9-1.8,7.7-2.6,11.6
			c-2.2,10.9-5.2,21.5-8.6,32c-3.6,11-7.4,21.9-11.9,32.6c-3,7.2-6.2,14.4-9.6,21.4c-4.2,8.7-8.9,17.2-13.7,25.5
			c-4.6,8-9.5,15.7-14.6,23.3c-3,4.5-6.2,8.9-9.4,13.2c-3.3,4.4-6.5,8.8-10.1,13c-3,3.5-5.9,7.1-8.9,10.6c-3.6,4.2-7.2,8.3-11,12.2
			c-7.9,8.2-16,16.3-24.6,23.8c-5.3,4.6-10.6,9.2-16,13.6c-7.9,6.5-16.1,12.4-24.5,18.2c-4.9,3.3-9.9,6.5-14.9,9.6
			c-7.3,4.6-14.7,8.9-22.4,12.9c-7.2,3.7-14.4,7.3-21.7,10.7c-6.9,3.2-13.9,6.1-20.9,8.8c-7.8,3-15.7,5.9-23.7,8.3
			c-6.3,1.9-12.7,3.8-19.1,5.5c-5.5,1.4-10.9,2.8-16.5,4c-5.8,1.3-11.7,2.3-17.5,3.3c-3.6,0.6-7.2,1-10.8,1.6
			c-2.7,0.4-5.5,0.6-8.3,1.1c-3.7,0.6-7.4,0.9-11.1,1.2c-3,0.3-6,0.9-9.1,0.6C423.3,791.5,422.5,791.5,422.4,792.5z M395.9,564.5
			c69.4,0,138.9,0,208.3,0c4.9,0,9.5-1.3,13.9-3.2c4.2-1.9,8-4.7,11.2-8.1c6.2-6.6,10.1-14.3,10.1-23.5c0-85.6,0-171.2,0-256.8
			c0-0.6,0-1.1,0-1.7c-0.1-1.3-0.8-1.9-2.2-2c-1.4-0.1-2.2,0.8-3,1.7c-3,3.1-6,6.2-9,9.3c-9.1,9.4-18.3,18.6-27.5,27.9
			c-7.6,7.7-15.2,15.5-22.8,23.2c-6.3,6.4-12.6,12.8-18.9,19.2c-8.1,8.3-16.2,16.5-24.3,24.7c-5.9,6-11.8,12.1-17.8,18.2
			c-1.3,1.4-2.7,2.7-4,4.1c-1.3,1.4-1.2,2.4,0,3.7c4.1,4.4,8.3,8.8,12.4,13.2c4.4,4.7,8.8,9.4,13.3,14.1c4.4,4.7,8.9,9.3,13.3,14.1
			c5.3,5.6,10.5,11.3,15.8,17c4.9,5.2,9.8,10.4,14.8,15.6c5.6,5.9,11.2,11.8,16.7,17.8c1.1,1.2,2.4,2.3,3.3,3.8
			c3.1,5.2,3.5,10.5,0.4,15.9c-3.9,6.8-11.8,8.9-18.9,6c-3.3-1.3-5.3-4-7.6-6.4c-5.3-5.5-10.4-11.2-15.7-16.8
			c-4.8-5.1-9.7-10.1-14.5-15.2c-5.9-6.3-11.7-12.6-17.6-18.9c-4-4.3-8.1-8.5-12.2-12.8c-4.9-5.2-9.7-10.3-14.6-15.5
			c-3.2-3.4-6.3-6.8-9.5-10.1c-1.4-1.5-2.9-1.5-4.3,0c-5.6,5.7-11.2,11.3-16.7,17c-6.7,6.9-13.7,13.5-22.1,18.5
			c-4.9,3-10,5.6-15.4,7.7c-5.1,2-10.4,3.6-15.8,4.6c-3.7,0.7-7.3,1.4-11.1,1.5c-6.6,0.2-13.2,0.5-19.8-0.7c-4-0.8-8.1-1.1-12-2.4
			c-6.8-2.1-13.4-4.6-19.6-8c-7.5-4.1-14.5-9-20.7-14.9c-5.5-5.4-10.9-10.9-16.3-16.4c-2.1-2.1-4.2-4.3-6.3-6.5
			c-1.8-1.9-3-1.9-4.9-0.1c-0.5,0.5-1,1-1.5,1.5c-5.4,5.7-10.8,11.5-16.2,17.2c-5.7,6-11.3,12.1-17,18.1c-4.6,4.9-9.2,9.7-13.8,14.6
			c-5.2,5.6-10.4,11.2-15.6,16.8c-5,5.3-10,10.5-14.9,15.8c-2.7,2.8-5.2,5.8-8,8.5c-4.4,4.4-9.9,5.4-15.5,3.5
			c-10.4-3.6-13-16.6-5.8-24.3c3.9-4.2,7.8-8.4,11.8-12.6c5-5.3,10-10.5,15-15.8c7.3-7.7,14.6-15.4,21.8-23.2
			c6.6-7.2,13.3-14.2,20-21.3c4.5-4.8,9.1-9.6,13.6-14.5c1.9-2,3.8-4.1,5.7-6.1c1.4-1.5,1.3-2.9,0-4.2c-6.7-6.8-13.4-13.7-20.1-20.5
			c-4.2-4.3-8.5-8.5-12.7-12.8c-6.4-6.5-12.7-13-19-19.5c-8.7-8.8-17.4-17.6-26-26.4c-9-9.2-18-18.3-26.9-27.5
			c-5.3-5.4-10.5-10.7-15.8-16.1c-1.7-1.7-3.4-3.4-5.1-5c-1.6-1.4-3.6-0.6-3.9,1.4c-0.1,0.5,0,1.1,0,1.7c0,85.6,0,171.2,0,256.8
			c0,1.9,0.2,3.8,0.7,5.7c1.6,7.3,5.1,13.7,10.6,18.9c7,6.6,15,10.5,24.8,10.5C258.8,564.5,327.3,564.5,395.9,564.5z M396.7,228.9
			c-69.1,0-138.2,0-207.4,0c-7.8,0-14.6,2.9-20.8,7.5c-0.5,0.4-0.8,0.7-0.1,1.3c3.2,3,6.2,6.1,9.3,9.3c7.6,7.8,15.2,15.5,22.7,23.2
			c9.8,10,19.6,19.9,29.4,29.9c9.1,9.2,18.1,18.4,27.2,27.6c9.7,9.9,19.4,19.7,29.1,29.6c9.5,9.7,19,19.4,28.5,29
			c10.3,10.5,20.5,21,30.9,31.4c5.5,5.6,10.9,11.2,17.7,15.3c5.2,3.1,10.7,5.7,16.6,7.2c3.5,0.9,7.1,1.7,10.8,2
			c5.5,0.5,11,0.5,16.5-0.4c5.1-0.8,10.1-2.3,14.9-4.3c8-3.4,14.9-8.3,21-14.3c5.9-5.9,11.6-12,17.5-17.9
			c7.1-7.2,14.2-14.4,21.3-21.6c10.6-10.8,21.3-21.6,31.9-32.4c7.4-7.5,15-15,22.3-22.6c6.8-7.1,13.8-13.9,20.5-21.1
			c5.4-5.7,11.1-11.2,16.6-16.8c9.4-9.5,18.7-19,28-28.6c7.9-8,15.7-16,23.7-24c0.8-0.9,0.8-1.4-0.1-2.1c-2.6-1.9-5.3-3.6-8.3-4.7
			c-1.9-0.7-3.9-1.2-5.9-1.7c-2.5-0.6-5-0.8-7.6-0.8C534.2,228.9,465.4,228.9,396.7,228.9z"/>
		<path class="st1" d="M375.4,0.5c-0.1,0.8-0.7,1-1.4,1c-3.4-0.3-6.9,0.3-10.2,0.6c-2.5,0.2-5.1,0.2-7.6,0.7
			c-1.8,0.4-3.6,0.3-5.4,0.5c-6.5,0.8-13,1.8-19.5,2.8c-11.1,1.7-22,4.1-32.9,6.8c-6.9,1.7-13.8,3.8-20.7,5.9
			c-10.3,3.2-20.4,6.9-30.3,11c-5.8,2.4-11.5,4.8-17.1,7.5c-4.1,1.9-8.1,3.8-12.1,5.8c-9.7,5-19.3,10.3-28.5,16.1
			c-5.1,3.2-10.1,6.4-15.1,9.7c-6.2,4.1-12.1,8.5-18,13c-5.3,4.1-10.5,8.3-15.6,12.6c-4.3,3.8-8.6,7.6-12.9,11.4
			c-5.7,5.1-11,10.7-16.4,16.1c-4.8,4.8-9.2,9.9-13.7,15c-4.4,5-8.7,10.1-12.8,15.4c-4.1,5.2-8.1,10.4-11.8,15.9
			c-3.2,4.8-6.6,9.6-9.8,14.4c-4.4,6.8-8.4,13.7-12.4,20.7c-3.9,6.9-7.4,14-11,21c-4.6,9.1-8.5,18.6-12.3,28
			c-2.9,7.3-5.5,14.8-8,22.3c-3.1,9.2-5.7,18.6-7.9,28c-1.4,6.4-3,12.7-4.2,19.1c-1,5.3-1.8,10.6-2.7,16c-0.8,5.5-1.4,11-2.2,16.5
			c-0.3,2.4-0.5,4.9-0.7,7.4c-0.3,3.3-0.2,6.7-0.8,10c-0.3,1.9-0.1,4-0.1,6c0,0.8,0.2,1.7-1,1.9c0-126.4,0-252.8,0-379.2
			C125.4,0.5,250.4,0.5,375.4,0.5z"/>
		<path class="st1" d="M0.5,413.3c0.4,0.1,0.8,0.2,0.9,0.7c0.1,0.5,0.1,1,0.1,1.4c0,4.9,0.5,9.8,0.9,14.8c0.3,4.1,0.7,8.2,1.1,12.3
			c0.6,5.2,1.3,10.4,2.2,15.6c1.2,7.1,2.5,14.1,3.9,21.1c1.5,7.3,3.2,14.4,5.1,21.6c3.2,11.6,6.9,23.1,11.1,34.3
			c3.9,10.3,8,20.5,12.7,30.4c3.5,7.5,7.4,14.8,11.4,22.1c3.6,6.6,7.4,13.2,11.5,19.6c3.1,4.9,6.3,9.8,9.6,14.6
			c5,7.3,10.3,14.3,15.8,21.2c4,5,8.2,9.9,12.4,14.8c3.2,3.7,6.6,7.3,10,11c3.2,3.5,6.5,7,10,10.3c4.7,4.5,9.4,9.1,14.4,13.4
			c8.4,7.4,17,14.6,26.1,21.3c10.2,7.5,20.6,14.7,31.5,21.2c6.5,3.9,13.1,7.6,19.7,11.3c4.9,2.7,9.9,5.2,14.9,7.6
			c9.3,4.5,18.9,8.5,28.6,12.3c6.8,2.6,13.6,5,20.5,7.3c7,2.3,14,4.2,21.1,6.2c9.6,2.6,19.3,4.6,29.1,6.5c5.5,1,11.1,1.9,16.7,2.6
			c4.4,0.6,8.8,1.2,13.2,1.7c2.4,0.3,4.7,0.7,7.1,0.6c2.6-0.1,5.2,0.8,7.9,0.5c0.7-0.1,1.1,0.3,1.1,0.9c-123.5,0-247,0-370.6,0
			C0.5,666.1,0.5,539.7,0.5,413.3z"/>
		<path class="st1" d="M792.5,367.7c-0.8-0.1-1-0.7-0.9-1.4c0.3-2.9-0.3-5.7-0.6-8.6c-0.5-4.6-0.9-9.3-1.7-13.9
			c-0.5-3.5-1-7.1-1.5-10.6c-0.8-5.7-1.9-11.4-3.1-17.1c-1.5-7.2-3.1-14.5-5.1-21.6c-1.1-4-2.2-8-3.4-12c-4-13.4-8.8-26.5-14.1-39.4
			c-4-9.8-8.8-19.4-13.6-28.8c-4.7-9.1-9.7-17.9-15.1-26.6c-6.3-10.1-13-19.8-20.1-29.4c-3.3-4.4-6.8-8.6-10.2-12.9
			c-4.1-5.1-8.5-10.1-13-15c-2-2.2-4.3-4.3-6.2-6.6c-3.2-3.7-6.6-7.2-10.1-10.5c-4.5-4.4-9.1-8.7-13.8-12.9
			c-5.8-5.1-11.7-10-17.7-14.9c-4-3.2-8.3-6.2-12.4-9.3c-3.1-2.3-6.1-4.6-9.3-6.7c-6.2-3.9-12.2-8.2-18.5-11.9
			c-3.9-2.2-7.7-4.6-11.5-6.8c-2.5-1.4-5-2.8-7.5-4.2c-5.2-2.7-10.4-5.3-15.7-7.8c-9.3-4.4-18.7-8.6-28.4-12.2
			c-7.3-2.7-14.6-5.5-22.1-7.8c-11.2-3.5-22.4-6.6-33.9-9c-5.9-1.3-11.8-2.4-17.8-3.6c-3.6-0.7-7.2-1.1-10.8-1.6
			c-4.3-0.6-8.6-1.3-13-1.8c-2.2-0.3-4.4-0.3-6.6-0.6c-3.1-0.4-6.2-0.3-9.3-0.8c-1.6-0.3-3.3-0.1-5-0.1c-0.7,0-1.5,0.1-1.6-1
			c124.6,0,249.3,0,373.9,0C792.5,122.9,792.5,245.3,792.5,367.7z"/>
		<path class="st1" d="M422.4,792.5c0.1-1,0.9-1,1.6-0.9c3,0.3,6.1-0.3,9.1-0.6c3.7-0.3,7.4-0.6,11.1-1.2c2.7-0.4,5.5-0.6,8.3-1.1
			c3.6-0.6,7.2-0.9,10.8-1.6c5.9-1,11.7-2.1,17.5-3.3c5.5-1.2,11-2.6,16.5-4c6.4-1.7,12.7-3.6,19.1-5.5c8-2.4,15.9-5.3,23.7-8.3
			c7.1-2.7,14-5.7,20.9-8.8c7.3-3.4,14.5-7,21.7-10.7c7.6-4,15.1-8.3,22.4-12.9c5-3.1,10-6.3,14.9-9.6c8.4-5.8,16.6-11.8,24.5-18.2
			c5.4-4.4,10.7-9,16-13.6c8.6-7.5,16.7-15.6,24.6-23.8c3.8-3.9,7.5-8.1,11-12.2c3-3.5,6-7.1,8.9-10.6c3.5-4.2,6.8-8.6,10.1-13
			c3.2-4.3,6.4-8.7,9.4-13.2c5.1-7.6,10-15.3,14.6-23.3c4.8-8.4,9.5-16.8,13.7-25.5c3.4-7,6.6-14.2,9.6-21.4
			c4.5-10.7,8.4-21.6,11.9-32.6c3.4-10.5,6.5-21.2,8.6-32c0.8-3.9,1.8-7.7,2.6-11.6c0.9-5.2,2-10.3,2.7-15.5
			c0.6-4.2,1.3-8.3,1.8-12.5c0.5-3.7,0.6-7.5,1.1-11.1c0.3-2.2,0.4-4.4,0.4-6.7c0-0.7,0.3-1.1,1-1.1c0,122.2,0,244.5,0,366.7
			C669.1,792.5,545.8,792.5,422.4,792.5z"/>
		<path class="st1" d="M792.5,373.9c-0.8-1.1-0.8-2.2,0-3.4C792.5,371.7,792.5,372.8,792.5,373.9z"/>
		<path class="st1" d="M792.5,422.9c-0.8-1.1-0.8-2.2,0-3.4C792.5,420.6,792.5,421.8,792.5,422.9z"/>
		<path class="st2" d="M395.9,564.5c-68.6,0-137.1,0-205.7,0c-9.8,0-17.9-3.9-24.8-10.5c-5.5-5.2-8.9-11.5-10.6-18.9
			c-0.4-1.9-0.7-3.8-0.7-5.7c0-85.6,0-171.2,0-256.8c0-0.6-0.1-1.1,0-1.7c0.3-2.1,2.3-2.9,3.9-1.4c1.8,1.6,3.5,3.3,5.1,5
			c5.3,5.3,10.5,10.7,15.8,16.1c9,9.2,17.9,18.4,26.9,27.5c8.7,8.8,17.4,17.6,26,26.4c6.4,6.5,12.7,13,19,19.5
			c4.2,4.3,8.5,8.5,12.7,12.8c6.7,6.8,13.4,13.7,20.1,20.5c1.3,1.3,1.3,2.7,0,4.2c-1.9,2.1-3.8,4.1-5.7,6.1
			c-4.5,4.8-9.1,9.6-13.6,14.5c-6.7,7.1-13.4,14.1-20,21.3c-7.2,7.8-14.5,15.5-21.8,23.2c-5,5.3-10,10.5-15,15.8
			c-3.9,4.2-7.9,8.4-11.8,12.6c-7.3,7.7-4.7,20.7,5.8,24.3c5.6,1.9,11.1,0.9,15.5-3.5c2.8-2.8,5.3-5.7,8-8.5
			c5-5.3,10-10.5,14.9-15.8c5.2-5.6,10.4-11.2,15.6-16.8c4.6-4.9,9.2-9.7,13.8-14.6c5.7-6,11.3-12.1,17-18.1
			c5.4-5.7,10.8-11.5,16.2-17.2c0.5-0.5,1-1,1.5-1.5c1.8-1.8,3-1.8,4.9,0.1c2.1,2.1,4.2,4.3,6.3,6.5c5.4,5.5,10.8,11,16.3,16.4
			c6.2,6,13.1,10.8,20.7,14.9c6.3,3.4,12.8,5.9,19.6,8c4,1.2,8,1.6,12,2.4c6.6,1.2,13.2,0.9,19.8,0.7c3.7-0.1,7.4-0.9,11.1-1.5
			c5.4-1,10.7-2.6,15.8-4.6c5.4-2.1,10.5-4.7,15.4-7.7c8.3-5,15.3-11.6,22.1-18.5c5.5-5.7,11.1-11.4,16.7-17c1.4-1.5,2.9-1.5,4.3,0
			c3.2,3.4,6.3,6.8,9.5,10.1c4.8,5.2,9.7,10.3,14.6,15.5c4,4.3,8.1,8.5,12.2,12.8c5.9,6.3,11.7,12.6,17.6,18.9
			c4.8,5.1,9.7,10.1,14.5,15.2c5.2,5.6,10.4,11.3,15.7,16.8c2.3,2.4,4.4,5.1,7.6,6.4c7.1,2.9,15,0.8,18.9-6
			c3.1-5.3,2.7-10.7-0.4-15.9c-0.8-1.4-2.2-2.5-3.3-3.8c-5.6-5.9-11.2-11.9-16.7-17.8c-4.9-5.2-9.9-10.4-14.8-15.6
			c-5.3-5.6-10.5-11.4-15.8-17c-4.4-4.7-8.9-9.4-13.3-14.1c-4.4-4.7-8.9-9.4-13.3-14.1c-4.1-4.4-8.3-8.8-12.4-13.2
			c-1.3-1.4-1.3-2.3,0-3.7c1.3-1.4,2.7-2.7,4-4.1c5.9-6.1,11.8-12.1,17.8-18.2c8.1-8.3,16.2-16.5,24.3-24.7
			c6.3-6.4,12.6-12.8,18.9-19.2c7.6-7.7,15.2-15.5,22.8-23.2c9.2-9.3,18.4-18.5,27.5-27.9c3-3.1,6-6.2,9-9.3c0.8-0.8,1.6-1.8,3-1.7
			c1.4,0.1,2.1,0.6,2.2,2c0.1,0.6,0,1.1,0,1.7c0,85.6,0,171.2,0,256.8c0,9.2-4,16.9-10.1,23.5c-3.2,3.4-7,6.2-11.2,8.1
			c-4.4,2-9,3.3-13.9,3.2C534.8,564.5,465.3,564.5,395.9,564.5z"/>
		<path class="st2" d="M396.7,228.9c68.7,0,137.4,0,206.2,0c2.5,0,5,0.2,7.6,0.8c2,0.5,4,0.9,5.9,1.7c3,1.1,5.7,2.8,8.3,4.7
			c0.9,0.7,0.9,1.2,0.1,2.1c-7.9,8-15.8,16-23.7,24c-9.3,9.5-18.6,19.1-28,28.6c-5.5,5.6-11.2,11.1-16.6,16.8
			c-6.7,7.1-13.8,14-20.5,21.1c-7.3,7.7-14.9,15.1-22.3,22.6c-10.6,10.8-21.3,21.6-31.9,32.4c-7.1,7.2-14.2,14.4-21.3,21.6
			c-5.8,6-11.6,12-17.5,17.9c-6.1,6.1-13,11-21,14.3c-4.8,2-9.8,3.5-14.9,4.3c-5.4,0.9-10.9,0.9-16.5,0.4c-3.7-0.3-7.2-1.1-10.8-2
			c-5.9-1.5-11.4-4-16.6-7.2c-6.8-4.1-12.2-9.7-17.7-15.3c-10.3-10.4-20.6-20.9-30.9-31.4c-9.5-9.7-19-19.4-28.5-29
			c-9.7-9.9-19.4-19.8-29.1-29.6c-9.1-9.2-18.1-18.4-27.2-27.6c-9.8-10-19.6-19.9-29.4-29.9c-7.6-7.7-15.2-15.5-22.7-23.2
			c-3.1-3.1-6-6.3-9.3-9.3c-0.6-0.6-0.4-0.9,0.1-1.3c6.2-4.6,12.9-7.5,20.8-7.5C258.5,228.9,327.6,228.9,396.7,228.9z"/>
	</g>
</g>
</svg>
