<?xml version="1.0" encoding="utf-8"?>
<!-- Generator: Adobe Illustrator 22.1.0, SVG Export Plug-In . SVG Version: 6.00 Build 0)  -->
<svg version="1.1" id="Layer_1" xmlns="http://www.w3.org/2000/svg" xmlns:xlink="http://www.w3.org/1999/xlink" x="0px" y="0px"
	 viewBox="0 0 385 385" style="enable-background:new 0 0 385 385;" xml:space="preserve">
<style type="text/css">
	.st0{fill:#FFFFFF;}
	.st1{fill:#CCCCCC;}
</style>
<g>
	<g>
		<path class="st0" d="M192.7,385.2c-63.8,0-127.5,0-191.3,0c-1.1,0-1.2-0.3-1.2-1.3c0-127.5,0-255,0-382.6c0-1.1,0.3-1.2,1.3-1.2
			c127.5,0,255,0,382.6,0c1.1,0,1.2,0.3,1.2,1.3c0,127.5,0,255,0,382.6c0,1.1-0.3,1.2-1.3,1.2C320.2,385.2,256.5,385.2,192.7,385.2z
			 M86.2,217.5c0-52.9,0-105.8,0-158.7c0-2.7-1.2-4.8-3.2-6.4c-4.5-3.4-9.1-6.6-13.6-9.8C59.9,35.8,50.4,29,41,22.2
			C31.7,15.5,22.5,9,13.3,2.3c-2.6-1.9-5.4-2.2-8.2-0.8C2.2,2.9,0.7,5.4,0.7,8.7c0,61.8,0,123.5,0,185.3c0,44.1,0,88.1,0,132.2
			c0,2.4,1,4.6,2.9,6c5.8,4.3,11.8,8.5,17.7,12.7c4.7,3.4,9.5,6.8,14.2,10.2c6.8,4.9,13.6,9.8,20.4,14.7c5.5,4,11.1,8,16.6,12
			c1.7,1.2,3.4,2.3,5.5,2.3c4.2,0.1,8-3.6,8-7.8C86.2,323.4,86.2,270.5,86.2,217.5z M299.3,218c0,52.8,0,105.7,0,158.5
			c0,1,0.2,2,0.5,2.9c1.7,4.8,7.5,6.8,11.5,3.9c3.8-2.7,7.5-5.4,11.3-8.2c8.7-6.3,17.4-12.7,26.1-19c5.1-3.7,10.2-7.4,15.3-11
			c5.7-4.2,11.4-8.3,17.2-12.5c2.3-1.7,3.7-3.9,3.7-6.9c0-105.7,0-211.3,0-317c0-0.2,0-0.3,0-0.5c-0.2-3.1-1.7-5.3-4.3-6.7
			c-2.6-1.3-5.2-1.3-7.6,0.4c-3.9,2.7-7.7,5.6-11.6,8.4c-5.6,4-11.2,8.1-16.8,12.2c-7.3,5.3-14.5,10.6-21.8,15.9
			c-6.6,4.8-13.3,9.7-20,14.5c-2.3,1.7-3.4,3.9-3.4,6.8C299.3,112.4,299.3,165.2,299.3,218z M105.4,218.1c0,52.9,0,105.8,0,158.8
			c0,3.2,1.6,5.5,4.3,7c2.5,1.4,5.2,1.2,7.6-0.2c4.8-2.8,9.5-5.7,14.3-8.6c8.6-5.1,17.1-10.1,25.7-15.2c6.9-4,13.6-8.2,20.6-12.1
			c3.7-2.1,5.3-5,5.3-9.3c0-105.1,0-210.2,0-315.2c0-0.8-0.1-1.6-0.3-2.4c-1.6-5.6-7.1-7.6-11.6-5c-4.3,2.5-8.6,5.1-12.9,7.7
			c-7.8,4.6-15.7,9.3-23.5,13.9c-8.2,4.9-16.4,9.8-24.7,14.6c-3.2,1.9-4.8,4.5-4.8,8.4C105.4,113,105.4,165.6,105.4,218.1z
			 M280.1,217.4c0-52.7,0-105.4,0-158.2c0-0.3,0-0.6,0-1c-0.2-2.7-1.5-4.9-3.8-6.3c-5.3-3.2-10.6-6.3-15.9-9.5
			c-7.6-4.5-15.2-9.1-22.7-13.6c-7.4-4.4-14.8-8.8-22.1-13.2c-2.3-1.4-4.6-2.3-7.2-1.6c-3.6,1-6,4.2-6,8.1c0,105.4,0,210.9,0,316.3
			c0,0.2,0,0.5,0,0.7c0.3,2.6,1.2,4.9,3.5,6.3c5,3.1,10.1,6,15.2,9.1c6.8,4,13.5,8.1,20.3,12.1c8.9,5.3,17.8,10.6,26.6,16
			c1.8,1.1,3.8,1.7,5.8,1.2c3.9-0.9,6.3-4.2,6.3-8.2C280.1,322.9,280.1,270.2,280.1,217.4z"/>
		<path class="st1" d="M86.2,217.5c0,53,0,105.9,0,158.9c0,4.2-3.9,8-8,7.8c-2.1-0.1-3.8-1.1-5.5-2.3c-5.5-4-11.1-8-16.6-12
			c-6.8-4.9-13.6-9.8-20.4-14.7c-4.7-3.4-9.5-6.8-14.2-10.2c-5.9-4.2-11.9-8.4-17.7-12.7c-1.9-1.4-2.9-3.6-2.9-6
			c0-44.1,0-88.1,0-132.2c0-61.8,0-123.5,0-185.3c0-3.3,1.5-5.8,4.4-7.3c2.8-1.4,5.5-1.1,8.2,0.8C22.5,9,31.7,15.5,41,22.2
			c9.5,6.8,18.9,13.6,28.3,20.4c4.5,3.3,9.1,6.5,13.6,9.8c2.1,1.5,3.2,3.7,3.2,6.4C86.2,111.7,86.2,164.6,86.2,217.5z"/>
		<path class="st1" d="M299.3,218c0-52.8,0-105.6,0-158.4c0-2.8,1.1-5.1,3.4-6.8c6.7-4.8,13.3-9.7,20-14.5
			c7.3-5.3,14.5-10.6,21.8-15.9c5.6-4.1,11.2-8.1,16.8-12.2c3.9-2.8,7.7-5.6,11.6-8.4c2.4-1.7,5-1.7,7.6-0.4
			c2.7,1.4,4.2,3.6,4.3,6.7c0,0.2,0,0.3,0,0.5c0,105.7,0,211.3,0,317c0,3-1.3,5.2-3.7,6.9c-5.7,4.2-11.4,8.3-17.2,12.5
			c-5.1,3.7-10.2,7.3-15.3,11c-8.7,6.3-17.4,12.7-26.1,19c-3.8,2.7-7.5,5.5-11.3,8.2c-4,2.8-9.7,0.8-11.5-3.9
			c-0.3-0.9-0.5-1.9-0.5-2.9C299.3,323.7,299.3,270.9,299.3,218z"/>
		<path class="st1" d="M105.4,218.1c0-52.6,0-105.1,0-157.7c0-3.9,1.6-6.5,4.8-8.4c8.2-4.8,16.4-9.7,24.7-14.6
			c7.8-4.6,15.7-9.3,23.5-13.9c4.3-2.6,8.6-5.1,12.9-7.7c4.5-2.6,10-0.6,11.6,5c0.2,0.8,0.3,1.6,0.3,2.4c0,105.1,0,210.2,0,315.2
			c0,4.2-1.6,7.2-5.3,9.3c-6.9,4-13.7,8.1-20.6,12.1c-8.6,5.1-17.1,10.1-25.7,15.2c-4.8,2.8-9.5,5.7-14.3,8.6
			c-2.5,1.5-5.2,1.6-7.6,0.2c-2.6-1.5-4.3-3.8-4.3-7C105.4,324,105.4,271.1,105.4,218.1z"/>
		<path class="st1" d="M280.1,217.4c0,52.8,0,105.5,0,158.3c0,4-2.5,7.3-6.3,8.2c-2.1,0.5-4-0.1-5.8-1.2c-8.9-5.3-17.7-10.6-26.6-16
			c-6.8-4-13.5-8.1-20.3-12.1c-5.1-3-10.1-6-15.2-9.1c-2.3-1.4-3.2-3.7-3.5-6.3c0-0.2,0-0.5,0-0.7c0-105.4,0-210.9,0-316.3
			c0-3.9,2.3-7.1,6-8.1c2.6-0.7,5,0.2,7.2,1.6c7.3,4.5,14.7,8.8,22.1,13.2c7.6,4.5,15.2,9.1,22.7,13.6c5.3,3.2,10.6,6.3,15.9,9.5
			c2.3,1.4,3.6,3.6,3.8,6.3c0,0.3,0,0.6,0,1C280.1,112,280.1,164.7,280.1,217.4z"/>
	</g>
</g>
</svg>
