<svg version="1" xmlns="http://www.w3.org/2000/svg" width="1088" height="1088" viewBox="0 0 816.000000 816.000000"><path d="M424.1 10.3c-1.9 2.4-1.6 4.6 1.9 12.7 7.2 17.1 9.4 31.8 6.4 43.8-1.7 6.5-5 13.1-7.5 14.9-3.8 2.8-2.5 8.3 2 9 8.5 1.3 15.1 10 15.3 20.3.1 4-.6 6-3.9 11.7-7.7 12.7-16.7 23.8-31.7 38.8-24.4 24.3-47.6 42.3-67.5 52.3-18.1 9-25.3 17.4-27.5 31.7-2 13.4-3.5 18.1-7.5 24.7-4.1 6.6-22.8 35.6-31.4 48.6-3.1 4.8-6 9.4-6.4 10.2-.3.8-1.9 3.3-3.3 5.5-1.5 2.2-3.7 5.6-4.8 7.5-1.1 1.9-4.9 8.2-8.4 14-8.7 14.2-11.6 19.8-19.2 38-6 14.2-10.2 26.2-11.2 31.5-.2 1.1-.8 4.2-1.3 6.9-2.1 11.4.7 22.3 7.8 29.4 3.5 3.6 7.3 5.9 15.6 9.6 14.2 6.2 18.8 8.9 23.8 13.8 4.7 4.5 5 3.6-3.3 9.8-6.9 5.2-22 17.2-31.7 25.3-10.1 8.3-25.4 28.6-32.7 43.2-3.5 7.1-8.5 18.8-9.1 21.5-.2.8-1.1 4.2-1.9 7.5-3 11.2-3.7 22.8-2.2 37 .6 5.9 1.4 10 4 20.5 1.7 6.8 7.5 20 17.4 39.9 5.8 11.8 17.7 21.3 61.7 49.7 12 7.7 15 8.1 15 2 .1-2.6-.4-4-1.5-4.3-6.2-2-9.9-4.9-17-13.3-3.6-4.2-8.9-16.2-9.8-22-.7-5-.5-7.5 1.1-17.7 1.5-9.5 7.6-23 16-35.3 19.2-28.2 34.3-41.2 85.2-73.5 27.6-17.5 31.6-20 61.5-36.7 15.7-8.8 32.1-18.4 36.5-21.3 13.9-9.2 39.4-26.8 44.7-30.9 1.4-1.2 4.1-3.2 5.9-4.6 18.9-14.2 28.5-22.8 52.5-46.5C572 421.3 576 415.7 576 410c0-4.6-1.8-8.2-12-23.5-14-21.2-19.9-35.3-21.5-51.5-.3-3.6-.8-8.5-1-11-.3-2.5-.7-15.3-1-28.5-.7-30.9-1.6-38-6.5-47.5-4.8-9.4-14.8-13-28-9.9-4.2 1-13.9 5.3-15 6.7-.3.4-2.3 2-4.5 3.6-11.2 8.3-30.6 24.4-47.5 39.5-25.2 22.7-38.5 36.4-53.7 55.7l-8.8 11.1-11.5 3.2c-14.1 3.8-16.7 4.3-25.2 4.3-11.6 0-16.1-4.3-16.2-15.7 0-7.9 3.2-16.5 8.9-23.7 4-5.1 5.6-6.2 18.7-12.6 17.3-8.4 27.1-14.1 47.7-27.7 14-9.3 25.1-18.2 44.7-36 4.4-4 16.3-14.7 18.1-16.3 1.3-1.1 6.7-6 12-10.9 5.4-5 11.9-10.8 14.4-12.9 2.5-2.2 5.9-5.7 7.6-7.8 4.2-5.3 3.7-9.7-2.1-20.8-4.3-8.4-9.6-22.4-11.7-31.7-.6-2.5-1.3-10.9-1.5-18.6-.8-34.5-1.4-44.8-3.5-57.7-.6-3.7-1-6.9-1-7 .5-1-4.2-12.3-6.4-15.9-8.8-13.9-24.1-30-32.6-34.1-7.4-3.7-11.2-4.4-12.8-2.5zm19.2 18.9c4.6 4.5 11.7 15.1 13.3 20 4 11.3 1.4 34.2-5.1 45.2l-2.3 3.9-1.5-2.9c-1.5-2.9-5.1-6.8-9.5-10.1l-2.3-1.8 2.3-5c1.2-2.8 2.3-5.2 2.3-5.5.1-.3.4-1.9.8-3.5 3.2-13.5 2.4-22.3-3.9-43.5l-.7-2.5 2.4 2c1.3 1.1 3.2 2.8 4.2 3.7zm77.4 224.9c1.5.6 2.4 2.1 3 5.1 1.2 5.4-2.2 16.1-9.3 30-6.9 13.2-19.3 33.1-24.8 39.6-9.6 11.4-32 31-64.6 56.5-9.5 7.5-35 25.8-48.5 34.9-20.3 13.6-25.5 16.9-41.8 25.9-11.2 6.3-30.4 18.5-44.5 28.3l-13.3 9.3-5.7-5.7c-3.1-3.1-7.4-6.5-9.4-7.4-2.1-1-3.6-2.2-3.3-2.6.2-.4 2.8-1 5.7-1.4 16.1-2 34.9-12.3 58.8-32.2 18.5-15.3 20.8-17.9 39.5-44.4 24-33.9 38.5-52 55.5-69.1 12.8-12.9 17.1-17 33.5-31.6 10.5-9.3 10.9-9.6 26.3-22.1 13.4-10.8 14.7-11.6 21.5-13.2 7.2-1.8 16.5-1.7 21.4.1zm-204.4 78.5c-2.6 6.1-2.4 21.6.5 27 2.6 5 6.8 8.8 11.9 10.5 4.5 1.6 20.1 1.6 25.8.1 2.2-.6 5.5-1.4 7.4-1.7 1.9-.3 3.9-.9 4.5-1.3.6-.3.4.4-.4 1.5-.8 1.2-3.9 5.7-6.9 10-9.9 14.3-23.9 32.8-26.8 35.3-1.5 1.4-5.9 5.2-9.8 8.5-3.8 3.3-7.2 6.2-7.5 6.5-3.9 3.9-20.9 15.9-28.2 19.8-6.9 3.7-17.8 7.7-23.8 8.7-2.5.4-5.4.9-6.5 1.2-4.3.9-16.5.5-20.1-.7-10-3.2-13.7-12.8-10.5-27.1.5-2.4 1.2-5.5 1.4-6.9.3-1.4 2.4-8.4 4.7-15.5 4-12.1 4.6-13.4 9.4-18.1 6.2-6.1 33.6-29.7 44.1-37.9 23.2-18.2 31.7-24.6 32.2-24.2.2.2-.4 2.1-1.4 4.3z"/><path d="M566.7 441.8c-1.8.2-3.6 1.6-5.2 4-1.4 2-2.5 3.9-2.5 4.2 0 .3 2.1.6 4.6.6 5.5.1 7.4 1.8 8.1 7.2.7 5.3-3.1 21.2-6.4 27-6.9 12.1-27.6 34.7-41.3 45.2-6.7 5.1-31.6 22-32.5 22-.1 0-3.3 1.8-7 4.1-12.2 7.4-14.8 8.8-37.5 20.3-12.4 6.3-25.2 12.9-28.5 14.8-3.3 1.9-6.7 3.7-7.5 4.1-.8.4-2.4 1.3-3.5 2-16.3 9.8-21.3 13-28.5 18.1-50 34.9-80.2 69-89.5 101.1-2 6.6-2.7 22.6-1.3 26.5 2.1 5.8 6.9 8.8 17.4 11.1 10.5 2.2 12.4 5.5 13.1 22.3.6 16.7.4 16.3 7 19.3 11.4 5.2 35.3 2.7 59.2-6.3 13.8-5.2 25-12.8 43.1-29.1 20.2-18.2 53.2-39.5 77.5-50 9.7-4.3 29.3-10.3 41.1-12.7 14.1-2.9 24.4-4 37.7-4h9.8l-5.8-2.6c-18.4-8.4-21.4-21.9-8.5-39.2 2-2.6 4-4.8 4.4-4.8.4 0 .8-.5.8-1.1 0-.9-4.1-1-15.2-.6-8.4.4-16.2.8-17.3 1.1-1.1.2-5.1.7-9 1-3.8.4-7.7.9-8.5 1.1-1.7.5-5.9 1.3-11 2.1-18.4 2.9-65.1 19.9-93.1 33.9-23.8 11.9-32.1 17.3-64.4 42.4-4.9 3.9-9.8 7-10.8 7.1-2.4 0-8.8-3.3-11-5.8-4.5-4.9-3-15.1 3.8-26.7 3.8-6.6 4.7-7.4 15-13.8 14.9-9.1 26.9-14.9 53.5-25.7 12.4-5 23.9-9.7 25.5-10.5 24.3-10.7 36-17 51-27.3 9.6-6.5 24.7-18.1 32.5-24.8 19.1-16.4 23.3-20.2 41.8-37.9 16.4-15.8 16.7-16.8 10.3-44.5-1.8-7.4-1.9-10.7-1.4-25 .3-9.1.7-23.1.7-31.2.1-13.8 0-14.8-2.1-17-2.3-2.4-3.6-2.7-8.6-2zM333.9 710.1c-1.8 6.1-1.4 15.4 1 20 2.6 4.8 3.7 6.1 8 8.7l3.3 2-5.4 2.5c-10.8 5.1-15 5.3-32.3 1.8-7.5-1.5-10.7-2.9-9.9-4.3 3-5.1 8.9-13.1 12.1-16.5 3.3-3.5 23.4-18.4 24-17.9.2.1-.2 1.8-.8 3.7z"/></svg>