<?xml version="1.0" encoding="utf-8"?>
<!-- Generator: Adobe Illustrator 22.1.0, SVG Export Plug-In . SVG Version: 6.00 Build 0)  -->
<svg version="1.1" id="Layer_1" xmlns="http://www.w3.org/2000/svg" xmlns:xlink="http://www.w3.org/1999/xlink" x="0px" y="0px"
	 viewBox="0 0 792 792" style="enable-background:new 0 0 792 792;" xml:space="preserve">
<style type="text/css">
	.st0{fill:#FCF1F5;}
	.st1{fill:#FFFFFF;}
	.st2{fill:#DF5D8E;}
	.st3{fill:#DD8DA9;}
	.st4{fill:#DD8DAA;}
	.st5{fill:#DF8AA8;}
	.st6{fill:#E189A7;}
	.st7{fill:#E28AA8;}
	.st8{fill:#EDCBD7;}
</style>
<g>
	<g>
		<path class="st0" d="M792.5,422.9c0,1,0,1.9,0,2.9c-0.7,0.1-1,0.5-1,1.1c0,2.2-0.1,4.4-0.4,6.7c-0.5,3.7-0.6,7.4-1.1,11.1
			c-0.5,4.2-1.3,8.3-1.8,12.5c-0.7,5.2-1.7,10.3-2.7,15.5c-0.7,3.9-1.8,7.7-2.6,11.6c-2.2,10.9-5.2,21.5-8.6,32
			c-3.6,11-7.4,21.9-11.9,32.6c-3,7.2-6.2,14.4-9.6,21.4c-4.2,8.7-8.9,17.2-13.7,25.5c-4.6,8-9.5,15.7-14.6,23.3
			c-3,4.5-6.2,8.9-9.4,13.2c-3.3,4.4-6.5,8.8-10.1,13c-3,3.5-5.9,7.1-8.9,10.6c-3.6,4.2-7.2,8.3-11,12.2c-7.9,8.2-16,16.3-24.6,23.8
			c-5.3,4.6-10.6,9.2-16,13.6c-7.9,6.5-16.1,12.4-24.5,18.2c-4.9,3.3-9.9,6.5-14.9,9.6c-7.3,4.6-14.7,8.9-22.4,12.9
			c-7.2,3.7-14.4,7.3-21.7,10.7c-6.9,3.2-13.9,6.1-20.9,8.8c-7.8,3-15.7,5.9-23.7,8.3c-6.3,1.9-12.7,3.8-19.1,5.5
			c-5.5,1.4-10.9,2.8-16.5,4c-5.8,1.3-11.7,2.3-17.5,3.3c-3.6,0.6-7.2,1-10.8,1.6c-2.7,0.4-5.5,0.6-8.3,1.1
			c-3.7,0.6-7.4,0.9-11.1,1.2c-3,0.3-6,0.9-9.1,0.6c-0.7-0.1-1.5-0.1-1.6,0.9c-17.1,0-34.2,0-51.4,0c-0.1-0.7-0.5-1-1.1-0.9
			c-2.6,0.1-5.2-0.3-7.9-0.4c-2.4-0.1-4.8-0.4-7.1-0.7c-4.4-0.5-8.8-1.1-13.2-1.7c-5.6-0.8-11.2-1.5-16.7-2.6
			c-9.7-1.9-19.5-3.9-29.1-6.5c-7.1-1.9-14.1-3.9-21.1-6.2c-6.9-2.2-13.7-4.7-20.5-7.3c-9.7-3.8-19.2-7.8-28.6-12.3
			c-5-2.4-10-4.9-14.9-7.6c-6.6-3.7-13.2-7.4-19.7-11.3c-10.9-6.5-21.3-13.7-31.5-21.2c-9.1-6.6-17.6-13.9-26.1-21.3
			c-4.9-4.3-9.6-8.8-14.4-13.4c-3.5-3.3-6.7-6.8-10-10.3c-3.3-3.6-6.7-7.2-10-11c-4.2-4.9-8.4-9.8-12.4-14.8
			c-5.5-6.9-10.8-14-15.8-21.2c-3.9-5.7-7.6-11.6-11.3-17.4c-5.6-8.8-10.6-18-15.4-27.3c-5.7-11-10.7-22.3-15.3-33.8
			c-5.5-13.9-10.3-28.1-14.3-42.6c-2-7.1-3.7-14.3-5.1-21.6c-1.4-7-2.7-14-3.9-21.1c-0.9-5.2-1.6-10.4-2.2-15.6
			c-0.5-4.1-0.9-8.2-1.1-12.3c-0.3-4.9-0.9-9.8-0.9-14.8c0-0.5,0-1-0.1-1.4c-0.1-0.4-0.5-0.6-0.9-0.7c0-11.2,0-22.4,0-33.6
			c1.2-0.2,0.9-1.1,1-1.9c0-2-0.2-4,0.1-6c0.6-3.3,0.5-6.7,0.8-10c0.2-2.4,0.4-4.9,0.7-7.4c0.7-5.5,1.3-11,2.2-16.5
			c0.8-5.3,1.7-10.7,2.7-16c1.2-6.4,2.7-12.7,4.2-19.1c2.2-9.5,4.8-18.8,7.9-28c2.8-8.4,5.7-16.8,9-25c3.6-8.9,7.3-17.7,11.7-26.2
			c3.4-6.8,6.8-13.6,10.5-20.2c4-7,8-14,12.4-20.7c3.1-4.9,6.6-9.6,9.8-14.4c3.7-5.5,7.7-10.7,11.8-15.9c4.1-5.3,8.4-10.4,12.8-15.4
			c4.5-5.1,8.9-10.2,13.7-15c5.5-5.4,10.7-11,16.4-16.1c4.3-3.8,8.5-7.6,12.9-11.4c5.1-4.4,10.3-8.6,15.6-12.6
			c5.9-4.6,12-8.9,18.2-13.1c5.3-3.6,10.7-6.9,16.1-10.3c5.6-3.6,11.3-6.9,17.2-10c7.1-3.8,14.2-7.5,21.6-10.9
			c5.8-2.6,11.6-5.3,17.5-7.7c9.8-4,19.7-7.7,29.9-10.8c9.3-2.8,18.6-5.6,28.1-7.8c9.6-2.2,19.2-4.2,29-5.7
			c5.6-0.8,11.1-1.7,16.7-2.4c1.8-0.2,3.7-0.2,5.4-0.5c2.5-0.5,5.1-0.5,7.6-0.7c3.4-0.3,6.8-0.9,10.2-0.6c0.7,0.1,1.3-0.1,1.4-1
			c14.4,0,28.8,0,43.2,0c0.1,1,0.9,1,1.6,1c1.7,0,3.4-0.2,5,0.1c3.1,0.5,6.2,0.4,9.3,0.8c2.2,0.3,4.4,0.3,6.6,0.6
			c4.2,0.6,8.5,1.3,12.7,1.8c4.8,0.6,9.6,1.4,14.3,2.3c4.8,0.9,9.7,2,14.5,3c11.5,2.4,22.7,5.5,33.9,9c7.5,2.3,14.8,5.1,22.1,7.8
			c9.7,3.6,19.1,7.7,28.4,12.2c5.3,2.5,10.5,5.2,15.7,7.8c2.6,1.3,5.1,2.7,7.5,4.2c3.9,2.2,7.7,4.6,11.5,6.8
			c6.4,3.6,12.3,7.9,18.5,11.9c3.2,2,6.2,4.4,9.3,6.7c4.2,3.1,8.4,6.1,12.4,9.3c6,4.8,11.9,9.8,17.7,14.9c4.7,4.1,9.3,8.5,13.8,12.9
			c3.5,3.4,7,6.8,10.1,10.5c2,2.3,4.2,4.4,6.2,6.6c4.4,4.9,8.8,9.9,13,15c3.4,4.3,7,8.5,10.2,12.9c7,9.5,13.8,19.3,20.1,29.4
			c5.4,8.7,10.5,17.5,15.1,26.6c4.9,9.4,9.6,19,13.6,28.8c5.3,13,10.2,26.2,14.2,39.6c1.1,3.9,2.2,7.8,3.3,11.7
			c2,7.1,3.6,14.4,5.1,21.6c1.2,5.7,2.3,11.4,3.1,17.1c0.5,3.5,1,7.1,1.5,10.6c0.7,4.6,1.2,9.3,1.7,13.9c0.3,2.8,0.9,5.7,0.6,8.6
			c-0.1,0.7,0.1,1.3,0.9,1.4c0,1,0,1.9,0,2.9c-0.8,1.1-0.8,2.2,0,3.4c0,15.2,0,30.4,0,45.6C791.7,420.6,791.7,421.8,792.5,422.9z
			 M318.5,356.2c-0.6-4.3-0.1-8.4,1.6-12.4c1.5-3.7,3.8-7,6.1-10.3c3.1-4.3,6.5-8.5,9.3-13.1c2.9-4.7,5.1-9.6,4.8-15.2
			c-0.2-3.5-1-6.9-2.2-10.2c-1.4-3.9-2.9-7.7-4.7-11.4c-7.6-15.6-16.8-30.3-26.7-44.6c-6.4-9.2-13.1-18.1-21.3-25.8
			c-2.5-2.4-5.1-4.6-8.1-6.4c-3.5-2.2-7.1-2.6-11-1.2c-1.7,0.6-3.4,1.2-5.1,2c-11.5,4.9-22.3,11.1-32.2,18.9
			c-6.3,4.9-11.9,10.5-16.1,17.3c-4.2,6.8-7.2,14-7.7,22.1c-0.4,0.5-0.4,1-0.2,1.6c-0.3,2.7-0.2,5.4,0,8.1c-0.2,0.6-0.2,1.1,0.2,1.6
			c0.1,1.3,0.1,2.6,0.3,3.8c1.5,10.1,4.6,19.9,8.2,29.4c1.8,4.7,4,9.3,6.2,13.9c9.8,20.3,21.4,39.7,33.6,58.7
			c17.8,27.6,38.2,53.2,61,76.9c13.6,14.1,27.7,27.7,42.6,40.4c13.3,11.4,27.2,22,41.6,31.9c20.1,13.8,40.9,26.3,62.4,37.6
			c8.3,4.4,16.9,8.3,25.7,11.6c5.4,2,11,3.8,16.7,5.1c3.4,0.8,6.8,1.7,10.3,1.8c0.4,0.5,1,0.4,1.5,0.3c1.6,0.1,3.1,0.2,4.7,0.2
			c1.5,0.6,3,0.6,4.5,0c4.2,0.1,8.3-0.7,12.2-1.9c10.8-3.5,19.8-9.6,27.1-18.2c7.1-8.4,13-17.6,18.1-27.3c2.5-4.7,4.4-9.7,6.2-14.7
			c0.7-1.9,1-3.9,0.3-5.9c-0.7-2.1-1.5-4.2-2.9-6c-4.5-6.2-10-11.4-15.9-16.2c-17.6-14.1-36.5-26.1-56.5-36.5c-5.4-2.8-11-5.4-17-7
			c-2.2-0.6-4.4-1.5-6.7-1.3c-1.2-0.6-2.4-0.6-3.5,0c-1.8,0-3.4,0.4-5.1,0.9c-4.9,1.5-9,4.4-13.1,7.3c-4.2,3-8.1,6.3-12.4,9
			c-3.7,2.3-7.6,4.1-12,4.6c-0.6-0.2-1.1-0.2-1.6,0.2c-0.6,0-1.1,0-1.7,0.1c-0.6-0.5-1.3-0.4-2-0.2c-2.6-0.2-5.1-0.8-7.4-1.8
			c-4.5-1.9-8.9-4.3-13.1-7c-15.7-10.1-29.7-22.4-43.2-35.2c-5.5-5.2-10.8-10.7-16-16.2c-8-8.6-15.7-17.4-22.8-26.8
			c-5.6-7.5-11-15.1-14.8-23.7c-1.1-2.5-2.4-5-2.3-7.9C318.6,356.5,318.6,356.3,318.5,356.2z"/>
		<path class="st1" d="M375.4,0.5c-0.1,0.8-0.7,1-1.4,1c-3.4-0.3-6.9,0.3-10.2,0.6c-2.5,0.2-5.1,0.2-7.6,0.7
			c-1.8,0.4-3.6,0.3-5.4,0.5C345.1,4,339.5,4.8,334,5.7c-9.7,1.5-19.4,3.5-29,5.7c-9.5,2.2-18.8,4.9-28.1,7.8
			c-10.2,3.1-20.1,6.8-29.9,10.8c-5.9,2.4-11.7,5-17.5,7.7c-7.3,3.3-14.5,7.1-21.6,10.9c-5.8,3.1-11.6,6.4-17.2,10
			c-5.4,3.4-10.9,6.7-16.1,10.3c-6.2,4.2-12.3,8.6-18.2,13.1c-5.3,4.1-10.5,8.3-15.6,12.6c-4.3,3.8-8.6,7.6-12.9,11.4
			c-5.7,5.1-11,10.7-16.4,16.1c-4.8,4.8-9.2,9.9-13.7,15c-4.4,5-8.7,10.1-12.8,15.4c-4.1,5.2-8.1,10.4-11.8,15.9
			c-3.2,4.8-6.6,9.6-9.8,14.4c-4.4,6.8-8.4,13.7-12.4,20.7c-3.7,6.6-7.1,13.4-10.5,20.2c-4.3,8.6-8,17.4-11.7,26.2
			c-3.3,8.2-6.2,16.6-9,25c-3.1,9.2-5.7,18.6-7.9,28c-1.4,6.4-3,12.7-4.2,19.1c-1,5.3-1.8,10.6-2.7,16c-0.8,5.5-1.4,11-2.2,16.5
			c-0.3,2.4-0.5,4.9-0.7,7.4c-0.3,3.3-0.2,6.7-0.8,10c-0.3,1.9-0.1,4-0.1,6c0,0.8,0.2,1.7-1,1.9c0-126.4,0-252.8,0-379.2
			C125.4,0.5,250.4,0.5,375.4,0.5z"/>
		<path class="st1" d="M0.5,413.3c0.4,0.1,0.8,0.2,0.9,0.7c0.1,0.5,0.1,1,0.1,1.4c0,4.9,0.5,9.8,0.9,14.8c0.3,4.1,0.7,8.2,1.1,12.3
			c0.6,5.2,1.3,10.4,2.2,15.6c1.2,7.1,2.5,14.1,3.9,21.1c1.5,7.3,3.2,14.4,5.1,21.6c4,14.5,8.7,28.6,14.3,42.6
			c4.6,11.5,9.6,22.8,15.3,33.8c4.8,9.3,9.8,18.4,15.4,27.3c3.7,5.9,7.4,11.7,11.3,17.4c5,7.3,10.3,14.3,15.8,21.2
			c4,5,8.2,9.9,12.4,14.8c3.2,3.7,6.6,7.3,10,11c3.2,3.5,6.5,7,10,10.3c4.7,4.5,9.4,9.1,14.4,13.4c8.4,7.4,17,14.6,26.1,21.3
			c10.2,7.5,20.6,14.7,31.5,21.2c6.5,3.9,13.1,7.6,19.7,11.3c4.9,2.7,9.9,5.2,14.9,7.6c9.3,4.5,18.9,8.5,28.6,12.3
			c6.8,2.6,13.6,5,20.5,7.3c7,2.3,14,4.2,21.1,6.2c9.6,2.6,19.3,4.6,29.1,6.5c5.5,1.1,11.1,1.8,16.7,2.6c4.4,0.6,8.8,1.2,13.2,1.7
			c2.4,0.3,4.7,0.6,7.1,0.7c2.6,0.1,5.2,0.6,7.9,0.4c0.7,0,1.1,0.3,1.1,0.9c-123.5,0-247,0-370.6,0C0.5,666.1,0.5,539.7,0.5,413.3z"
			/>
		<path class="st1" d="M792.5,367.7c-0.8-0.1-1-0.7-0.9-1.4c0.3-2.9-0.3-5.7-0.6-8.6c-0.5-4.6-0.9-9.3-1.7-13.9
			c-0.5-3.5-1-7.1-1.5-10.6c-0.8-5.7-1.9-11.4-3.1-17.1c-1.5-7.2-3.1-14.5-5.1-21.6c-1.1-3.9-2.2-7.8-3.3-11.7
			c-4-13.5-8.8-26.6-14.2-39.6c-4-9.8-8.8-19.4-13.6-28.8c-4.7-9.1-9.7-17.9-15.1-26.6c-6.3-10.1-13-19.8-20.1-29.4
			c-3.3-4.4-6.8-8.6-10.2-12.9c-4.1-5.1-8.5-10.1-13-15c-2-2.2-4.3-4.3-6.2-6.6c-3.2-3.7-6.6-7.2-10.1-10.5
			c-4.5-4.4-9.1-8.7-13.8-12.9c-5.8-5.1-11.7-10-17.7-14.9c-4-3.2-8.3-6.2-12.4-9.3c-3.1-2.3-6.1-4.6-9.3-6.7
			c-6.2-3.9-12.2-8.2-18.5-11.9c-3.9-2.2-7.7-4.6-11.5-6.8c-2.5-1.4-5-2.8-7.5-4.2c-5.2-2.7-10.4-5.3-15.7-7.8
			c-9.3-4.4-18.7-8.6-28.4-12.2c-7.3-2.7-14.6-5.5-22.1-7.8c-11.2-3.5-22.4-6.6-33.9-9c-4.8-1-9.6-2.1-14.5-3
			c-4.8-0.9-9.5-1.7-14.3-2.3c-4.3-0.5-8.5-1.2-12.7-1.8c-2.2-0.3-4.4-0.3-6.6-0.6c-3.1-0.4-6.2-0.3-9.3-0.8c-1.6-0.3-3.3-0.1-5-0.1
			c-0.7,0-1.5,0.1-1.6-1c124.6,0,249.3,0,373.9,0C792.5,122.9,792.5,245.3,792.5,367.7z"/>
		<path class="st1" d="M422.4,792.5c0.1-1,0.9-1,1.6-0.9c3,0.3,6.1-0.3,9.1-0.6c3.7-0.3,7.4-0.6,11.1-1.2c2.7-0.4,5.5-0.6,8.3-1.1
			c3.6-0.6,7.2-0.9,10.8-1.6c5.9-1,11.7-2.1,17.5-3.3c5.5-1.2,11-2.6,16.5-4c6.4-1.7,12.7-3.6,19.1-5.5c8-2.4,15.9-5.3,23.7-8.3
			c7.1-2.7,14-5.7,20.9-8.8c7.3-3.4,14.5-7,21.7-10.7c7.6-4,15.1-8.3,22.4-12.9c5-3.1,10-6.3,14.9-9.6c8.4-5.8,16.6-11.8,24.5-18.2
			c5.4-4.4,10.7-9,16-13.6c8.6-7.5,16.7-15.6,24.6-23.8c3.8-3.9,7.5-8.1,11-12.2c3-3.5,6-7.1,8.9-10.6c3.5-4.2,6.8-8.6,10.1-13
			c3.2-4.3,6.4-8.7,9.4-13.2c5.1-7.6,10-15.3,14.6-23.3c4.8-8.4,9.5-16.8,13.7-25.5c3.4-7,6.6-14.2,9.6-21.4
			c4.5-10.7,8.4-21.6,11.9-32.6c3.4-10.5,6.5-21.2,8.6-32c0.8-3.9,1.8-7.7,2.6-11.6c0.9-5.2,2-10.3,2.7-15.5
			c0.6-4.2,1.3-8.3,1.8-12.5c0.5-3.7,0.6-7.5,1.1-11.1c0.3-2.2,0.4-4.4,0.4-6.7c0-0.7,0.3-1.1,1-1.1c0,122.2,0,244.5,0,366.7
			C669.1,792.5,545.8,792.5,422.4,792.5z"/>
		<path class="st1" d="M792.5,373.9c-0.8-1.1-0.8-2.2,0-3.4C792.5,371.7,792.5,372.8,792.5,373.9z"/>
		<path class="st1" d="M792.5,422.9c-0.8-1.1-0.8-2.2,0-3.4C792.5,420.6,792.5,421.8,792.5,422.9z"/>
		<path class="st2" d="M205.1,275.5c-0.2-2.7-0.3-5.4,0-8.1c0.5-0.5,0.4-1,0.2-1.6c0.5-8.1,3.6-15.3,7.7-22.1
			c4.2-6.8,9.8-12.4,16.1-17.3c9.9-7.7,20.6-13.9,32.2-18.9c1.7-0.7,3.4-1.3,5.1-2c3.9-1.4,7.5-1,11,1.2c2.9,1.8,5.5,4,8.1,6.4
			c8.2,7.7,14.9,16.6,21.3,25.8c9.9,14.3,19.1,29,26.7,44.6c1.8,3.7,3.3,7.5,4.7,11.4c1.2,3.4,2,6.7,2.2,10.2
			c0.2,5.7-2,10.6-4.8,15.2c-2.8,4.6-6.2,8.7-9.3,13.1c-2.3,3.2-4.6,6.5-6.1,10.3c-1.6,4-2.2,8.1-1.6,12.4c-0.1,0.2,0,0.4,0.2,0.5
			c-0.1,2.9,1.2,5.4,2.3,7.9c3.8,8.6,9.1,16.3,14.8,23.7c7.1,9.4,14.8,18.2,22.8,26.8c5.2,5.5,10.5,11,16,16.2
			c13.5,12.8,27.5,25.1,43.2,35.2c4.2,2.7,8.5,5.1,13.1,7c2.3,1,4.8,1.6,7.4,1.8c0.6,0.5,1.3,0.3,2,0.2c0.6,0,1.1,0,1.7-0.1
			c0.6,0.2,1.1,0.3,1.6-0.2c4.4-0.5,8.3-2.3,12-4.6c4.3-2.7,8.3-6,12.4-9c4.1-2.9,8.2-5.8,13.1-7.3c1.7-0.5,3.4-0.9,5.1-0.9
			c1.2,0.1,2.4,0.1,3.5,0c2.4-0.1,4.5,0.8,6.7,1.3c6,1.6,11.5,4.2,17,7c20,10.4,38.9,22.4,56.5,36.5c5.9,4.7,11.4,10,15.9,16.2
			c1.4,1.8,2.2,3.9,2.9,6c0.7,2,0.4,4-0.3,5.9c-1.9,5-3.8,10-6.2,14.7c-5.1,9.8-10.9,19-18.1,27.3c-7.3,8.6-16.3,14.7-27.1,18.2
			c-4,1.3-8,2-12.2,1.9c-1.5-0.1-3-0.1-4.5,0c-1.6-0.1-3.1-0.2-4.7-0.2c-0.4-0.4-1-0.4-1.5-0.3c-3.5-0.1-6.9-1-10.3-1.8
			c-5.7-1.3-11.2-3.1-16.7-5.1c-8.8-3.3-17.4-7.2-25.7-11.6c-21.5-11.3-42.4-23.8-62.4-37.6c-14.4-9.9-28.3-20.6-41.6-31.9
			c-14.9-12.7-29-26.3-42.6-40.4c-22.8-23.6-43.2-49.2-61-76.9c-12.2-19-23.8-38.3-33.6-58.7c-2.2-4.6-4.4-9.1-6.2-13.9
			c-3.6-9.5-6.7-19.3-8.2-29.4c-0.2-1.3-0.2-2.5-0.3-3.8C205.4,276.5,205.5,276,205.1,275.5z"/>
		<path class="st3" d="M520.2,588.6c1.5-0.2,3-0.1,4.5,0C523.2,589.2,521.7,589.2,520.2,588.6z"/>
		<path class="st4" d="M489.7,453.5c-1.2,0.1-2.4,0.1-3.5,0C487.3,452.9,488.5,452.9,489.7,453.5z"/>
		<path class="st5" d="M440.3,475.6c-0.7,0.1-1.4,0.3-2-0.2C438.9,475.2,439.6,475,440.3,475.6z"/>
		<path class="st6" d="M205.3,265.8c0.1,0.6,0.2,1.1-0.2,1.6C204.9,266.8,204.9,266.3,205.3,265.8z"/>
		<path class="st7" d="M205.1,275.5c0.5,0.5,0.4,1,0.2,1.6C204.9,276.6,204.9,276.1,205.1,275.5z"/>
		<path class="st5" d="M443.5,475.3c-0.5,0.5-1,0.4-1.6,0.2C442.4,475.1,443,475.2,443.5,475.3z"/>
		<path class="st6" d="M514,588.1c0.5-0.1,1.1-0.2,1.5,0.3C515,588.5,514.4,588.5,514,588.1z"/>
		<path class="st8" d="M318.7,356.7c-0.2-0.1-0.3-0.3-0.2-0.5C318.6,356.3,318.6,356.5,318.7,356.7z"/>
	</g>
</g>
</svg>
