<svg id="svg" version="1.1" width="400" height="400" viewBox="0 0 400 400" xmlns="http://www.w3.org/2000/svg" xmlns:xlink="http://www.w3.org/1999/xlink" ><g id="svgg"><path id="path0" d="M26.607 1.227 C 25.510 1.410,24.550 1.749,24.473 1.980 C 24.396 2.211,24.085 2.400,23.781 2.400 C 22.816 2.400,19.488 3.655,18.904 4.239 C 18.595 4.547,18.118 4.800,17.843 4.800 C 17.568 4.800,16.635 5.335,15.771 5.989 C 14.907 6.643,14.054 7.183,13.876 7.189 C 13.453 7.203,7.203 13.453,7.189 13.876 C 7.183 14.054,6.643 14.907,5.989 15.771 C 5.335 16.635,4.800 17.568,4.800 17.843 C 4.800 18.118,4.547 18.595,4.239 18.904 C 3.655 19.488,2.400 22.816,2.400 23.781 C 2.400 24.085,2.218 24.394,1.995 24.468 C 0.423 24.992,0.467 44.400,2.041 44.400 C 2.238 44.400,2.400 44.709,2.400 45.087 C 2.400 45.932,3.645 49.320,4.064 49.614 C 4.232 49.732,4.650 50.501,4.994 51.323 C 5.337 52.146,5.889 53.129,6.220 53.509 C 9.002 56.703,9.596 57.431,9.598 57.641 C 9.599 57.774,41.586 89.867,80.679 128.959 L 151.759 200.036 80.371 271.518 C 41.108 310.833,8.537 343.598,7.992 344.328 C 7.446 345.058,6.683 346.006,6.295 346.433 C 5.907 346.861,5.302 347.928,4.951 348.805 C 4.600 349.682,4.190 350.400,4.039 350.400 C 3.889 350.400,3.435 351.435,3.030 352.700 C 2.626 353.965,2.014 355.630,1.671 356.400 C 0.397 359.260,0.659 375.086,1.988 375.529 C 2.215 375.605,2.400 375.901,2.400 376.187 C 2.400 377.096,3.709 380.800,4.030 380.800 C 4.199 380.800,4.540 381.411,4.786 382.158 C 5.032 382.904,5.676 384.029,6.217 384.658 C 6.757 385.286,7.199 385.946,7.200 386.124 C 7.200 386.547,13.453 392.800,13.876 392.800 C 14.054 392.801,14.714 393.243,15.342 393.783 C 15.971 394.324,17.096 394.968,17.842 395.214 C 18.589 395.460,19.200 395.801,19.200 395.970 C 19.200 396.291,22.904 397.600,23.813 397.600 C 24.099 397.600,24.394 397.782,24.468 398.005 C 24.972 399.515,44.800 399.527,44.800 398.017 C 44.800 397.871,45.705 397.519,46.811 397.236 C 47.917 396.952,49.042 396.510,49.311 396.253 C 49.580 395.996,50.565 395.447,51.500 395.032 C 52.435 394.618,53.200 394.121,53.200 393.929 C 53.200 393.737,53.655 393.407,54.210 393.196 C 54.766 392.985,55.325 392.539,55.453 392.206 C 55.581 391.873,55.909 391.600,56.183 391.600 C 56.456 391.600,88.927 359.353,128.340 319.939 L 200.001 248.278 271.100 319.389 C 310.205 358.500,342.650 390.790,343.200 391.143 C 343.750 391.497,344.435 392.104,344.723 392.493 C 345.010 392.882,345.511 393.200,345.835 393.200 C 346.160 393.200,346.524 393.458,346.645 393.774 C 346.766 394.090,347.660 394.675,348.631 395.074 C 349.602 395.473,350.398 395.918,350.399 396.063 C 350.399 396.207,351.435 396.646,352.700 397.038 C 353.965 397.430,355.090 397.872,355.200 398.021 C 356.292 399.501,376.400 399.485,376.400 398.004 C 376.400 397.840,377.480 397.402,378.800 397.032 C 380.120 396.662,381.202 396.233,381.205 396.079 C 381.207 395.926,381.972 395.443,382.905 395.006 C 383.837 394.570,384.744 393.985,384.920 393.706 C 385.096 393.428,385.449 393.200,385.705 393.200 C 386.156 393.200,386.526 392.876,389.701 389.701 C 392.876 386.526,393.200 386.156,393.200 385.705 C 393.200 385.449,393.428 385.096,393.706 384.920 C 393.985 384.744,394.570 383.837,395.006 382.905 C 395.443 381.972,395.926 381.207,396.079 381.205 C 396.233 381.202,396.662 380.120,397.032 378.800 C 397.402 377.480,397.840 376.400,398.004 376.400 C 399.485 376.400,399.501 356.292,398.021 355.200 C 397.872 355.090,397.430 353.965,397.038 352.700 C 396.646 351.435,396.207 350.399,396.063 350.399 C 395.918 350.398,395.473 349.602,395.074 348.631 C 394.675 347.660,394.090 346.766,393.774 346.645 C 393.458 346.524,393.200 346.160,393.200 345.835 C 393.200 345.511,392.882 345.010,392.493 344.723 C 392.104 344.435,391.497 343.750,391.143 343.200 C 390.790 342.650,358.500 310.205,319.389 271.100 L 248.277 200.000 319.389 128.900 C 358.500 89.795,390.790 57.350,391.143 56.800 C 391.497 56.250,392.104 55.565,392.493 55.277 C 392.882 54.990,393.200 54.489,393.200 54.165 C 393.200 53.840,393.458 53.476,393.774 53.355 C 394.090 53.234,394.675 52.340,395.074 51.369 C 395.473 50.398,395.918 49.602,396.063 49.601 C 396.207 49.601,396.646 48.565,397.038 47.300 C 397.430 46.035,397.872 44.910,398.021 44.800 C 399.501 43.708,399.485 23.600,398.004 23.600 C 397.840 23.600,397.402 22.520,397.032 21.200 C 396.662 19.880,396.233 18.798,396.079 18.795 C 395.926 18.793,395.443 18.028,395.006 17.095 C 394.570 16.163,393.985 15.256,393.706 15.080 C 393.428 14.904,393.200 14.551,393.200 14.295 C 393.200 13.844,392.876 13.474,389.701 10.299 C 386.526 7.124,386.156 6.800,385.705 6.800 C 385.449 6.800,385.096 6.572,384.920 6.294 C 384.744 6.015,383.837 5.430,382.905 4.994 C 381.972 4.557,381.207 4.074,381.205 3.921 C 381.202 3.767,380.120 3.338,378.800 2.968 C 377.480 2.598,376.400 2.160,376.400 1.996 C 376.400 0.515,356.292 0.499,355.200 1.979 C 355.090 2.128,353.965 2.570,352.700 2.962 C 351.435 3.354,350.399 3.793,350.399 3.937 C 350.398 4.082,349.602 4.527,348.631 4.926 C 347.660 5.325,346.766 5.910,346.645 6.226 C 346.524 6.542,346.201 6.800,345.927 6.800 C 345.219 6.800,350.277 1.797,271.919 80.010 L 200.038 151.759 128.359 80.080 C 88.936 40.656,56.456 8.400,56.183 8.400 C 55.909 8.400,55.581 8.127,55.453 7.794 C 55.325 7.461,54.766 7.015,54.210 6.804 C 53.655 6.593,53.200 6.263,53.200 6.071 C 53.200 5.879,52.435 5.382,51.500 4.968 C 50.565 4.553,49.580 4.004,49.311 3.747 C 49.042 3.490,47.917 3.048,46.811 2.764 C 45.705 2.481,44.800 2.129,44.800 1.983 C 44.800 1.003,31.302 0.442,26.607 1.227 " stroke="none" fill="#58595b" fill-rule="evenodd"></path><path id="path1" d="" stroke="none" fill="#58595b" fill-rule="evenodd"></path><path id="path2" d="" stroke="none" fill="#58595b" fill-rule="evenodd"></path><path id="path3" d="" stroke="none" fill="#58595b" fill-rule="evenodd"></path><path id="path4" d="" stroke="none" fill="#58595b" fill-rule="evenodd"></path></g></svg>