<svg id="svg" version="1.1" width="400" height="507.01986754966885" viewBox="0 0 400 507.01986754966885" xmlns="http://www.w3.org/2000/svg" xmlns:xlink="http://www.w3.org/1999/xlink" ><g id="svgg"><path id="path0" d="M218.700 13.157 C 217.844 14.025,217.774 16.517,218.583 17.326 C 218.903 17.646,219.375 18.739,219.630 19.754 C 219.886 20.769,220.225 21.600,220.384 21.600 C 220.542 21.600,220.910 22.590,221.200 23.800 C 221.490 25.010,221.848 26.000,221.995 26.000 C 222.142 26.000,222.485 27.211,222.758 28.691 C 223.030 30.171,223.447 31.615,223.683 31.900 C 224.242 32.574,224.279 40.973,223.726 41.673 C 223.497 41.963,223.191 42.976,223.046 43.924 C 222.707 46.147,220.988 49.449,219.316 51.093 C 216.968 53.400,217.792 56.098,220.990 56.578 C 221.985 56.727,222.800 57.018,222.800 57.225 C 222.800 57.431,223.025 57.600,223.300 57.600 C 223.808 57.601,225.372 59.010,226.817 60.768 C 227.254 61.301,227.723 62.426,227.857 63.268 C 227.992 64.111,228.259 64.800,228.451 64.800 C 228.643 64.800,228.800 65.790,228.800 67.000 C 228.800 68.210,228.649 69.200,228.464 69.200 C 228.279 69.200,227.890 69.920,227.600 70.800 C 227.310 71.680,226.915 72.400,226.723 72.400 C 226.532 72.400,226.259 72.715,226.117 73.100 C 225.975 73.485,225.441 74.357,224.929 75.038 C 224.418 75.719,224.000 76.484,224.000 76.738 C 224.000 76.992,223.814 77.200,223.587 77.200 C 223.361 77.200,223.058 77.515,222.915 77.900 C 222.678 78.539,221.337 80.314,217.876 84.568 C 216.226 86.596,202.517 100.400,202.153 100.400 C 202.000 100.400,201.211 101.075,200.399 101.900 C 199.586 102.725,198.339 103.844,197.625 104.387 C 196.130 105.526,194.552 106.873,193.386 108.008 C 192.938 108.444,192.443 108.800,192.286 108.800 C 192.129 108.800,191.658 109.115,191.240 109.500 C 190.823 109.885,189.815 110.650,189.002 111.200 C 188.188 111.750,187.230 112.515,186.872 112.900 C 186.515 113.285,186.001 113.600,185.731 113.600 C 185.461 113.600,185.096 113.832,184.920 114.115 C 184.744 114.399,183.700 115.204,182.600 115.905 C 181.500 116.606,180.420 117.329,180.200 117.512 C 179.980 117.695,179.215 118.103,178.500 118.420 C 177.785 118.736,177.200 119.103,177.200 119.234 C 177.200 119.366,176.435 119.702,175.500 119.981 C 174.565 120.260,173.710 120.604,173.600 120.744 C 173.490 120.885,172.770 121.322,172.000 121.716 C 169.801 122.842,168.712 123.500,168.446 123.864 C 168.311 124.050,167.660 124.471,167.000 124.801 C 164.554 126.022,161.230 130.275,160.571 133.027 C 160.416 133.672,160.147 134.383,159.973 134.607 C 159.799 134.831,159.447 136.631,159.193 138.607 C 158.938 140.583,158.589 142.560,158.418 143.000 C 158.247 143.440,157.913 144.620,157.676 145.622 C 157.299 147.214,156.724 148.390,153.972 153.200 C 153.657 153.750,153.175 154.344,152.900 154.520 C 152.625 154.696,152.400 155.003,152.400 155.202 C 152.400 155.533,150.872 158.038,150.083 159.000 C 149.903 159.220,149.497 159.985,149.180 160.700 C 148.864 161.415,148.464 162.000,148.292 162.000 C 148.121 162.000,147.809 162.450,147.600 163.000 C 147.391 163.550,147.035 164.000,146.810 164.000 C 146.584 164.000,146.395 164.225,146.389 164.500 C 146.383 164.775,145.843 165.707,145.189 166.571 C 144.535 167.435,144.000 168.365,144.000 168.638 C 144.000 168.910,143.865 169.193,143.700 169.267 C 143.232 169.475,140.800 173.079,140.800 173.565 C 140.800 173.804,140.653 174.000,140.474 174.000 C 140.295 174.000,139.837 174.585,139.458 175.300 C 138.485 177.131,137.932 178.032,136.900 179.470 C 136.405 180.159,136.000 180.921,136.000 181.162 C 136.000 181.403,135.847 181.600,135.661 181.600 C 135.474 181.600,134.997 182.320,134.600 183.200 C 134.203 184.080,133.748 184.800,133.588 184.800 C 133.428 184.800,133.073 185.340,132.800 186.000 C 132.527 186.660,132.178 187.200,132.026 187.200 C 131.874 187.200,131.502 187.830,131.200 188.600 C 130.898 189.370,130.495 190.000,130.305 190.000 C 130.114 190.000,129.770 190.540,129.540 191.200 C 129.310 191.860,128.981 192.400,128.809 192.400 C 128.638 192.400,128.261 192.985,127.972 193.700 C 127.683 194.415,127.225 195.136,126.955 195.302 C 126.684 195.469,126.347 196.129,126.207 196.769 C 126.066 197.409,125.692 198.033,125.376 198.154 C 125.059 198.276,124.800 198.638,124.800 198.959 C 124.800 199.280,124.568 199.781,124.285 200.071 C 124.001 200.362,123.457 201.267,123.074 202.083 C 122.692 202.899,122.217 203.666,122.020 203.788 C 121.823 203.909,121.543 204.547,121.399 205.205 C 121.255 205.862,120.983 206.400,120.795 206.400 C 120.607 206.400,120.330 206.805,120.179 207.300 C 120.028 207.795,119.588 208.920,119.202 209.800 C 116.375 216.232,114.800 220.017,114.800 220.379 C 114.800 220.612,114.440 221.474,114.001 222.294 C 113.561 223.114,113.091 224.374,112.956 225.093 C 112.821 225.812,112.574 226.400,112.408 226.400 C 112.241 226.400,111.884 227.525,111.614 228.900 C 111.345 230.275,110.985 231.580,110.815 231.800 C 109.370 233.665,109.367 248.400,110.812 248.400 C 110.978 248.400,111.237 248.894,111.389 249.497 C 111.670 250.619,111.885 250.916,113.921 253.000 C 115.737 254.860,116.593 255.473,118.156 256.038 C 118.950 256.326,119.600 256.685,119.600 256.836 C 119.600 256.988,120.410 257.351,121.400 257.643 C 122.390 257.935,123.200 258.292,123.200 258.435 C 123.200 258.579,124.010 258.923,125.000 259.200 C 125.990 259.477,126.800 259.832,126.800 259.989 C 126.800 260.145,127.520 260.489,128.400 260.753 C 129.280 261.016,130.000 261.376,130.000 261.552 C 130.000 261.728,130.457 262.080,131.015 262.334 C 132.228 262.887,132.753 263.303,134.867 265.388 L 136.477 266.975 135.516 267.788 C 134.988 268.234,134.039 268.960,133.408 269.400 C 132.777 269.840,131.866 270.605,131.385 271.100 C 130.903 271.595,130.364 272.000,130.188 272.000 C 130.011 272.000,129.582 272.265,129.234 272.590 C 127.557 274.150,125.653 275.600,125.281 275.600 C 125.053 275.600,124.807 275.757,124.733 275.949 C 124.660 276.141,123.430 277.231,122.000 278.370 C 120.570 279.509,118.692 281.016,117.826 281.720 C 115.668 283.475,110.002 289.090,109.993 289.481 C 109.989 289.657,109.539 290.224,108.993 290.742 C 108.447 291.260,108.000 291.892,108.000 292.146 C 108.000 292.400,107.640 292.832,107.200 293.107 C 106.760 293.382,106.400 293.785,106.400 294.003 C 106.400 294.222,106.085 294.747,105.700 295.171 C 104.547 296.442,104.134 297.001,103.594 298.025 C 103.312 298.561,102.955 299.090,102.802 299.200 C 102.486 299.427,102.052 300.213,99.800 304.649 C 98.920 306.382,98.065 307.860,97.900 307.933 C 97.735 308.007,97.600 308.226,97.600 308.421 C 97.600 308.617,97.164 309.729,96.631 310.894 C 96.098 312.059,95.534 313.550,95.378 314.206 C 95.222 314.863,94.780 316.120,94.396 317.000 C 94.012 317.880,93.568 319.500,93.410 320.600 C 93.251 321.700,92.945 322.709,92.729 322.843 C 91.452 323.635,91.482 346.364,92.762 347.184 C 92.947 347.303,93.334 348.750,93.622 350.400 C 93.909 352.050,94.258 353.490,94.397 353.600 C 94.536 353.710,94.973 355.015,95.369 356.500 C 95.765 357.985,96.235 359.200,96.413 359.200 C 96.591 359.200,96.859 359.759,97.009 360.442 C 97.277 361.663,99.139 365.608,99.632 366.000 C 99.771 366.110,100.104 366.875,100.373 367.700 C 100.642 368.525,101.000 369.200,101.168 369.200 C 101.336 369.200,101.689 369.920,101.953 370.800 C 102.216 371.680,102.585 372.400,102.772 372.400 C 102.958 372.400,103.231 373.039,103.378 373.821 C 103.524 374.603,103.904 375.342,104.222 375.464 C 104.540 375.586,104.800 375.891,104.801 376.143 C 104.803 376.774,110.350 382.426,112.686 384.176 C 113.739 384.965,114.960 385.879,115.400 386.208 C 115.840 386.538,116.766 387.255,117.458 387.804 C 118.150 388.352,118.915 388.800,119.158 388.800 C 119.401 388.800,119.600 388.986,119.600 389.213 C 119.600 389.439,119.915 389.741,120.300 389.883 C 120.685 390.025,121.557 390.559,122.238 391.071 C 122.919 391.582,123.684 392.000,123.938 392.000 C 124.192 392.000,124.400 392.184,124.400 392.410 C 124.400 392.635,124.850 392.991,125.400 393.200 C 125.950 393.409,126.400 393.731,126.400 393.915 C 126.400 394.100,127.030 394.498,127.800 394.800 C 128.570 395.102,129.200 395.474,129.200 395.626 C 129.200 395.778,129.740 396.127,130.400 396.400 C 131.060 396.673,131.600 397.022,131.600 397.174 C 131.600 397.327,132.185 397.763,132.900 398.142 C 134.731 399.115,135.632 399.668,137.070 400.700 C 137.759 401.195,138.521 401.600,138.762 401.600 C 139.003 401.600,139.200 401.778,139.200 401.995 C 139.200 403.097,142.930 403.888,144.581 403.136 C 145.556 402.692,146.033 401.200,145.200 401.200 C 144.980 401.200,144.800 400.503,144.800 399.651 C 144.800 398.153,144.747 398.094,143.200 397.846 C 142.320 397.706,141.600 397.425,141.600 397.222 C 141.600 397.020,141.254 396.744,140.830 396.610 C 140.407 396.475,139.128 395.428,137.987 394.283 C 135.194 391.477,134.800 391.008,134.800 390.486 C 134.800 390.241,134.575 389.896,134.299 389.720 C 134.024 389.544,133.529 388.860,133.199 388.200 C 132.870 387.540,132.382 386.769,132.116 386.487 C 131.849 386.205,131.514 385.350,131.371 384.587 C 131.228 383.824,130.967 383.200,130.792 383.200 C 129.502 383.200,129.463 370.248,130.748 368.648 C 130.946 368.402,131.238 367.570,131.398 366.800 C 131.558 366.030,132.119 364.450,132.645 363.288 C 133.170 362.127,133.600 361.002,133.600 360.788 C 133.600 360.575,133.751 360.400,133.936 360.400 C 134.121 360.400,134.506 359.689,134.793 358.821 C 135.080 357.952,135.542 357.155,135.819 357.048 C 136.097 356.941,136.446 356.302,136.594 355.627 C 136.742 354.952,137.034 354.400,137.242 354.400 C 137.450 354.400,137.791 353.950,138.000 353.400 C 138.209 352.850,138.531 352.400,138.715 352.400 C 138.900 352.400,139.295 351.777,139.593 351.017 C 139.892 350.256,140.376 349.541,140.668 349.429 C 140.961 349.317,141.200 348.956,141.200 348.627 C 141.200 348.297,141.560 347.835,142.000 347.600 C 142.440 347.365,142.800 346.948,142.800 346.675 C 142.800 346.401,143.115 345.891,143.500 345.540 C 143.885 345.189,145.090 343.777,146.178 342.402 C 148.220 339.822,153.363 334.400,153.769 334.400 C 153.896 334.400,154.713 333.725,155.586 332.900 C 156.459 332.075,157.822 330.950,158.616 330.400 C 159.409 329.850,160.361 329.124,160.729 328.786 C 161.098 328.449,162.210 327.639,163.200 326.987 C 164.190 326.336,165.099 325.669,165.221 325.506 C 165.342 325.343,166.962 324.223,168.821 323.017 C 170.679 321.810,172.418 320.637,172.685 320.410 C 172.952 320.183,173.627 319.788,174.185 319.534 C 174.743 319.280,175.200 318.949,175.200 318.800 C 175.200 318.651,175.657 318.320,176.215 318.066 C 176.773 317.812,177.448 317.420,177.715 317.196 C 178.691 316.377,181.246 314.800,181.598 314.800 C 181.797 314.800,182.104 314.564,182.280 314.277 C 182.456 313.989,183.185 313.517,183.900 313.228 C 184.615 312.939,185.200 312.567,185.200 312.400 C 185.200 312.233,185.740 311.873,186.400 311.600 C 187.060 311.327,187.600 310.957,187.600 310.778 C 187.600 310.600,188.005 310.331,188.500 310.181 C 188.995 310.031,189.760 309.590,190.200 309.201 C 190.640 308.812,191.608 308.158,192.350 307.747 C 193.093 307.336,194.128 306.765,194.650 306.478 C 195.173 306.191,195.600 305.806,195.600 305.622 C 195.600 305.437,196.037 305.177,196.572 305.043 C 197.107 304.909,197.782 304.572,198.072 304.295 C 198.362 304.017,199.050 303.557,199.600 303.272 C 200.150 302.987,201.500 302.233,202.600 301.596 C 203.700 300.960,205.095 300.232,205.700 299.980 C 206.305 299.728,206.800 299.393,206.800 299.236 C 206.800 299.078,207.430 298.702,208.200 298.400 C 208.970 298.098,209.600 297.732,209.600 297.586 C 209.600 297.440,210.275 297.020,211.100 296.652 C 212.958 295.822,214.934 294.755,215.200 294.438 C 215.310 294.306,215.940 293.929,216.600 293.600 C 217.260 293.271,217.890 292.901,218.000 292.778 C 218.110 292.655,218.830 292.303,219.600 291.996 C 220.370 291.689,221.180 291.224,221.400 290.963 C 221.620 290.702,222.475 290.274,223.300 290.013 C 224.125 289.752,224.800 289.406,224.800 289.244 C 224.800 289.082,225.430 288.702,226.200 288.400 C 226.970 288.098,227.600 287.722,227.600 287.564 C 227.600 287.407,228.140 287.090,228.800 286.860 C 229.460 286.630,230.000 286.267,230.000 286.053 C 230.000 285.839,230.552 285.542,231.227 285.394 C 231.902 285.246,232.545 284.888,232.656 284.598 C 232.767 284.309,233.250 283.973,233.729 283.853 C 234.605 283.632,235.852 282.798,237.247 281.500 C 237.661 281.115,238.106 280.800,238.235 280.800 C 238.577 280.800,242.176 278.253,242.333 277.900 C 242.407 277.735,242.677 277.600,242.933 277.599 C 243.190 277.599,244.030 277.059,244.800 276.400 C 245.570 275.741,246.425 275.201,246.700 275.201 C 246.975 275.200,247.200 275.016,247.200 274.790 C 247.200 274.565,247.650 274.209,248.200 274.000 C 248.750 273.791,249.200 273.479,249.200 273.308 C 249.200 273.136,249.785 272.739,250.500 272.427 C 251.215 272.114,252.035 271.530,252.323 271.129 C 252.610 270.728,253.111 270.400,253.435 270.400 C 253.760 270.400,254.129 270.130,254.255 269.800 C 254.382 269.470,254.662 269.200,254.877 269.200 C 255.210 269.200,258.589 267.011,259.200 266.400 C 259.756 265.844,262.783 263.600,262.977 263.600 C 263.099 263.600,263.605 263.232,264.100 262.781 C 265.537 261.474,266.102 261.013,267.787 259.770 C 268.660 259.127,269.675 258.330,270.044 258.000 C 270.413 257.670,271.460 256.770,272.372 256.000 C 273.284 255.230,274.844 253.835,275.839 252.900 C 276.833 251.965,277.729 251.200,277.829 251.200 C 278.017 251.200,280.257 249.137,284.560 245.000 C 285.933 243.680,288.664 241.060,290.628 239.178 C 294.661 235.314,298.400 231.113,298.400 230.446 C 298.400 230.201,298.573 230.000,298.784 230.000 C 298.995 230.000,299.372 229.235,299.621 228.300 C 299.871 227.365,300.238 226.287,300.437 225.905 C 300.903 225.014,300.908 223.200,300.445 223.200 C 300.249 223.200,299.972 222.576,299.829 221.813 C 299.686 221.050,299.351 220.195,299.084 219.913 C 298.818 219.631,298.330 218.860,298.001 218.200 C 297.671 217.540,297.176 216.856,296.901 216.680 C 296.625 216.504,296.400 216.159,296.400 215.914 C 296.400 215.668,296.125 215.182,295.789 214.834 C 294.868 213.879,293.230 211.492,292.952 210.700 C 292.817 210.315,292.548 210.000,292.353 210.000 C 292.159 210.000,292.000 209.764,292.000 209.475 C 292.000 209.187,291.676 208.602,291.279 208.175 C 290.522 207.360,289.300 205.216,288.159 202.700 C 287.785 201.875,287.340 201.200,287.171 201.200 C 287.002 201.200,286.742 200.615,286.593 199.900 C 286.443 199.185,286.101 198.240,285.831 197.800 C 285.561 197.360,285.100 196.100,284.808 195.000 C 284.515 193.900,284.143 192.820,283.980 192.600 C 283.591 192.075,282.800 186.884,282.800 184.857 C 282.800 183.982,282.620 183.207,282.401 183.133 C 282.151 183.050,281.859 176.522,281.621 165.727 C 281.410 156.160,281.068 148.130,280.853 147.727 C 280.640 147.327,280.254 145.695,279.996 144.100 C 279.738 142.505,279.393 141.200,279.228 141.200 C 279.063 141.200,278.694 140.489,278.407 139.621 C 278.120 138.752,277.641 137.948,277.343 137.833 C 277.044 137.719,276.800 137.420,276.800 137.169 C 276.800 136.560,275.123 134.816,274.529 134.807 C 274.269 134.803,273.742 134.485,273.356 134.100 C 272.503 133.247,262.426 133.058,260.760 133.864 C 260.232 134.119,258.914 134.735,257.831 135.233 C 256.748 135.731,255.546 136.454,255.161 136.839 C 254.776 137.224,254.053 137.757,253.555 138.024 C 252.467 138.606,251.820 139.108,250.616 140.300 C 250.117 140.795,249.564 141.200,249.388 141.200 C 249.211 141.200,248.782 141.465,248.434 141.790 C 247.031 143.095,244.879 144.800,244.634 144.800 C 244.491 144.800,243.775 145.385,243.043 146.100 C 242.311 146.815,241.441 147.580,241.109 147.800 C 239.711 148.726,236.175 151.732,235.880 152.244 C 235.704 152.550,235.400 152.800,235.204 152.800 C 235.008 152.800,234.050 153.565,233.076 154.500 C 231.510 156.002,228.114 159.048,225.382 161.400 C 220.210 165.852,209.551 176.319,206.154 180.281 C 205.249 181.336,203.792 183.010,202.917 184.000 C 202.041 184.990,200.981 186.231,200.562 186.757 C 200.143 187.284,199.485 187.999,199.100 188.346 C 198.715 188.694,198.400 189.142,198.400 189.343 C 198.400 189.544,197.995 190.109,197.500 190.598 C 196.214 191.869,195.185 193.263,194.784 194.278 C 194.554 194.859,193.955 195.247,193.018 195.423 C 192.238 195.569,191.600 195.826,191.600 195.992 C 191.600 196.159,190.475 196.517,189.100 196.787 C 187.725 197.058,186.510 197.424,186.400 197.602 C 186.289 197.780,184.444 198.161,182.300 198.449 C 180.155 198.736,178.400 199.113,178.400 199.286 C 178.400 199.459,176.960 199.600,175.200 199.600 C 173.440 199.600,172.000 199.442,172.000 199.250 C 172.000 199.058,171.435 198.787,170.745 198.649 C 165.381 197.576,165.313 188.873,170.600 180.067 C 172.137 177.508,175.300 175.151,178.700 174.032 C 179.635 173.724,180.400 173.350,180.400 173.200 C 180.400 173.050,181.120 172.690,182.000 172.400 C 182.880 172.110,183.600 171.757,183.600 171.616 C 183.600 171.476,184.275 171.119,185.100 170.824 C 185.925 170.529,186.690 170.158,186.800 170.000 C 187.006 169.703,191.126 167.342,193.600 166.102 C 194.370 165.716,195.238 165.175,195.528 164.901 C 195.818 164.626,196.493 164.291,197.028 164.157 C 197.563 164.023,198.000 163.775,198.000 163.605 C 198.000 163.436,198.540 163.073,199.200 162.800 C 199.860 162.527,200.400 162.167,200.400 162.000 C 200.400 161.833,200.940 161.473,201.600 161.200 C 202.260 160.927,202.800 160.557,202.800 160.378 C 202.800 160.200,203.205 159.931,203.700 159.781 C 204.195 159.630,205.173 159.078,205.873 158.554 C 206.574 158.029,207.249 157.600,207.373 157.600 C 207.498 157.600,207.960 157.285,208.400 156.900 C 208.840 156.515,209.560 155.885,210.000 155.500 C 210.440 155.115,210.935 154.800,211.100 154.800 C 211.386 154.799,212.991 153.586,214.500 152.229 C 214.885 151.883,215.370 151.600,215.577 151.600 C 215.785 151.600,216.190 151.269,216.477 150.863 C 216.765 150.458,217.388 149.921,217.862 149.670 C 218.336 149.418,219.433 148.535,220.299 147.706 C 221.166 146.878,222.997 145.210,224.368 144.000 C 225.740 142.790,227.739 140.990,228.811 140.000 C 229.883 139.010,231.104 137.930,231.524 137.600 C 232.928 136.497,238.106 131.820,239.827 130.100 C 240.763 129.165,241.660 128.400,241.821 128.400 C 241.982 128.400,243.546 126.960,245.297 125.200 C 247.047 123.440,248.599 122.000,248.745 122.000 C 248.891 122.000,249.818 121.196,250.805 120.213 C 251.792 119.230,252.726 118.420,252.880 118.413 C 253.298 118.393,258.124 113.470,258.700 112.475 C 259.576 110.961,259.002 104.000,258.001 104.000 C 257.834 104.000,257.473 103.460,257.200 102.800 C 256.927 102.140,256.573 101.600,256.415 101.600 C 256.256 101.600,255.911 100.880,255.647 100.000 C 255.384 99.120,255.024 98.400,254.848 98.400 C 254.672 98.400,254.290 97.410,254.000 96.200 C 253.710 94.990,253.346 94.000,253.191 94.000 C 253.036 94.000,252.680 92.920,252.400 91.600 C 252.120 90.280,251.754 89.200,251.587 89.200 C 250.851 89.200,249.998 81.967,249.999 75.724 C 250.000 71.837,249.840 69.148,249.600 69.000 C 249.366 68.855,249.200 66.540,249.200 63.408 C 249.200 57.000,248.513 46.117,248.037 45.000 C 247.850 44.560,247.490 42.862,247.237 41.228 C 246.985 39.593,246.631 38.063,246.451 37.828 C 246.271 37.592,245.893 36.545,245.610 35.500 C 245.327 34.455,244.935 33.600,244.738 33.600 C 244.541 33.600,244.209 33.150,244.000 32.600 C 243.791 32.050,243.435 31.600,243.210 31.600 C 242.984 31.600,242.800 31.404,242.800 31.165 C 242.800 30.341,239.437 25.925,236.500 22.892 C 235.565 21.927,234.800 20.998,234.800 20.828 C 234.800 20.550,233.207 19.079,229.800 16.211 C 229.140 15.656,228.397 15.201,228.149 15.200 C 227.901 15.200,227.471 14.926,227.193 14.592 C 226.915 14.257,225.903 13.786,224.944 13.544 C 223.985 13.303,223.200 12.946,223.200 12.753 C 223.200 12.074,219.435 12.412,218.700 13.157 M231.200 26.063 C 231.200 26.224,231.829 27.040,232.598 27.878 C 233.367 28.715,233.997 29.616,233.998 29.880 C 233.999 30.144,234.253 30.504,234.562 30.680 C 234.871 30.856,235.433 32.080,235.810 33.400 C 236.188 34.720,236.675 36.023,236.894 36.296 C 237.384 36.908,237.392 46.269,236.902 46.925 C 236.707 47.186,236.214 49.155,235.806 51.300 C 235.397 53.445,234.928 55.200,234.763 55.200 C 234.598 55.200,234.345 55.739,234.201 56.398 C 233.791 58.263,231.600 58.696,231.600 56.912 C 231.600 56.319,228.900 53.673,227.621 53.011 C 226.498 52.430,225.915 51.200,226.763 51.200 C 226.963 51.200,227.357 50.300,227.639 49.200 C 227.921 48.100,228.281 47.200,228.439 47.200 C 230.040 47.200,230.037 27.610,228.436 26.400 C 228.291 26.290,227.982 25.246,227.751 24.079 L 227.330 21.958 229.265 23.864 C 230.329 24.912,231.200 25.902,231.200 26.063 M268.000 142.400 C 268.000 142.620,268.681 142.800,269.513 142.800 C 272.138 142.800,272.743 148.153,270.584 152.289 C 270.265 152.900,269.893 153.985,269.758 154.700 C 269.622 155.415,269.380 156.000,269.220 156.000 C 269.059 156.000,268.690 156.720,268.400 157.600 C 268.110 158.480,267.750 159.200,267.600 159.200 C 267.450 159.200,267.090 159.920,266.800 160.800 C 266.510 161.680,266.157 162.400,266.016 162.400 C 265.876 162.400,265.533 163.030,265.254 163.800 C 264.976 164.570,264.592 165.200,264.401 165.200 C 264.210 165.200,263.934 165.605,263.787 166.100 C 263.491 167.099,261.570 170.124,261.100 170.333 C 260.935 170.407,260.800 170.690,260.800 170.962 C 260.800 171.235,260.265 172.165,259.611 173.029 C 258.957 173.893,258.417 174.726,258.411 174.880 C 258.405 175.034,257.815 175.995,257.100 177.015 C 256.385 178.036,255.620 179.171,255.400 179.537 C 253.960 181.938,246.601 189.223,239.375 195.400 C 238.346 196.280,236.915 197.551,236.196 198.224 C 235.477 198.897,233.518 200.497,231.844 201.779 C 230.170 203.062,228.800 204.266,228.800 204.455 C 228.800 204.645,228.599 204.800,228.353 204.800 C 228.107 204.800,227.316 205.295,226.596 205.900 C 225.876 206.505,224.813 207.360,224.234 207.800 C 223.654 208.240,222.959 208.780,222.690 209.000 C 222.420 209.220,221.570 209.875,220.800 210.455 C 220.030 211.035,218.993 211.845,218.496 212.255 C 217.999 212.665,217.123 213.360,216.549 213.800 C 215.975 214.240,215.166 214.915,214.752 215.300 C 214.339 215.685,213.822 216.000,213.603 216.000 C 213.385 216.000,212.982 216.360,212.707 216.800 C 212.432 217.240,212.026 217.600,211.804 217.600 C 211.582 217.601,210.877 218.051,210.238 218.600 C 209.599 219.150,208.948 219.600,208.793 219.600 C 208.514 219.600,205.972 221.463,204.800 222.526 C 204.470 222.825,203.885 223.184,203.500 223.322 C 203.115 223.461,202.800 223.761,202.800 223.987 C 202.800 224.214,202.592 224.400,202.338 224.400 C 202.084 224.400,201.319 224.821,200.638 225.336 C 197.782 227.496,194.016 230.000,193.623 230.000 C 193.390 230.000,193.200 230.184,193.200 230.410 C 193.200 230.635,192.750 230.991,192.200 231.200 C 191.650 231.409,191.200 231.731,191.200 231.915 C 191.200 232.100,190.570 232.498,189.800 232.800 C 189.030 233.102,188.400 233.500,188.400 233.685 C 188.400 233.869,187.950 234.191,187.400 234.400 C 186.850 234.609,186.400 234.931,186.400 235.115 C 186.400 235.300,185.770 235.698,185.000 236.000 C 184.230 236.302,183.600 236.675,183.600 236.828 C 183.600 236.981,183.285 237.212,182.900 237.341 C 182.515 237.469,181.030 238.295,179.600 239.176 C 178.170 240.056,176.554 240.973,176.008 241.213 C 175.463 241.454,174.923 241.774,174.808 241.925 C 174.548 242.269,173.079 243.119,171.000 244.128 C 170.120 244.556,169.310 245.041,169.200 245.208 C 169.090 245.374,168.370 245.805,167.600 246.166 C 165.653 247.078,164.336 247.863,164.046 248.287 C 163.911 248.484,163.215 248.882,162.500 249.171 C 161.785 249.460,161.200 249.833,161.200 250.000 C 161.200 250.167,160.660 250.527,160.000 250.800 C 159.340 251.073,158.800 251.455,158.800 251.649 C 158.800 251.842,158.604 252.000,158.365 252.000 C 157.879 252.000,154.275 254.432,154.067 254.900 C 153.993 255.065,153.717 255.200,153.452 255.200 C 153.187 255.200,152.347 255.733,151.585 256.384 C 150.823 257.035,149.969 257.575,149.687 257.584 C 149.406 257.593,149.071 257.870,148.945 258.200 C 148.818 258.530,148.538 258.800,148.323 258.800 C 147.990 258.800,144.611 260.989,144.000 261.600 C 143.890 261.710,143.255 262.180,142.590 262.646 L 141.380 263.491 140.390 262.150 C 139.845 261.413,138.725 260.333,137.900 259.750 C 137.075 259.168,136.400 258.558,136.400 258.394 C 136.400 258.231,135.815 257.865,135.100 257.581 C 132.279 256.463,132.365 255.618,135.300 255.606 C 136.125 255.603,136.800 255.461,136.800 255.291 C 136.800 255.121,138.010 254.753,139.488 254.473 C 140.966 254.192,142.271 253.835,142.388 253.679 C 142.505 253.523,143.320 253.160,144.200 252.872 C 146.445 252.138,150.000 250.367,150.000 249.984 C 150.000 249.808,150.539 249.545,151.198 249.401 C 151.856 249.256,152.531 248.916,152.698 248.645 C 152.864 248.375,153.585 247.917,154.300 247.628 C 155.015 247.339,155.600 246.940,155.600 246.742 C 155.600 246.543,156.050 246.209,156.600 246.000 C 157.150 245.791,157.600 245.435,157.600 245.210 C 157.600 244.984,157.868 244.800,158.197 244.800 C 158.525 244.800,159.018 244.440,159.293 244.000 C 159.568 243.560,159.974 243.198,160.196 243.195 C 160.625 243.189,162.167 242.046,163.965 240.400 C 164.566 239.850,165.829 238.770,166.771 238.000 C 167.714 237.230,168.894 236.240,169.395 235.800 C 169.895 235.360,171.248 234.190,172.401 233.200 C 173.554 232.210,174.970 230.872,175.549 230.227 C 176.127 229.582,177.185 228.420,177.900 227.644 C 178.615 226.868,179.200 226.044,179.200 225.813 C 179.200 225.582,179.560 225.168,180.000 224.893 C 180.440 224.618,180.800 224.125,180.800 223.797 C 180.800 223.468,180.950 223.200,181.133 223.200 C 181.316 223.200,182.070 222.255,182.810 221.100 C 183.549 219.945,184.389 218.856,184.677 218.680 C 184.965 218.504,185.200 218.186,185.200 217.973 C 185.200 217.760,186.010 216.553,187.000 215.293 C 187.990 214.032,188.800 212.775,188.800 212.500 C 188.800 212.225,188.975 212.000,189.190 212.000 C 189.404 212.000,189.863 211.452,190.210 210.781 C 190.799 209.642,191.086 209.250,192.900 207.105 C 193.285 206.650,193.600 206.153,193.600 206.001 C 193.600 205.849,194.050 205.201,194.600 204.562 C 195.149 203.923,195.599 203.218,195.600 202.996 C 195.600 202.774,195.960 202.368,196.400 202.093 C 196.840 201.818,197.200 201.415,197.200 201.197 C 197.200 200.978,197.515 200.467,197.900 200.061 C 198.285 199.654,198.960 198.811,199.400 198.187 C 200.212 197.034,201.865 194.956,202.597 194.166 C 202.819 193.927,203.360 193.223,203.800 192.601 C 204.240 191.980,205.050 190.963,205.600 190.342 C 206.150 189.721,207.410 188.210,208.400 186.983 C 211.121 183.611,229.008 165.896,231.693 163.912 C 232.460 163.346,235.492 160.670,238.167 158.200 C 239.119 157.320,240.168 156.420,240.497 156.200 C 241.922 155.246,245.427 152.264,245.720 151.756 C 245.896 151.450,246.226 151.200,246.454 151.200 C 246.831 151.200,248.067 150.178,250.685 147.700 C 251.208 147.205,251.763 146.800,251.918 146.800 C 252.191 146.799,253.845 145.539,255.324 144.205 C 255.723 143.846,257.163 143.361,258.524 143.129 C 259.886 142.897,261.171 142.548,261.380 142.353 C 261.911 141.859,268.000 141.902,268.000 142.400 M162.000 183.920 C 162.000 184.096,161.775 184.465,161.500 184.740 C 160.846 185.394,160.786 197.089,161.434 197.515 C 161.673 197.672,162.082 198.423,162.343 199.184 C 162.893 200.791,165.628 203.420,167.146 203.801 C 167.721 203.945,168.323 204.274,168.482 204.532 C 168.835 205.102,181.366 205.177,182.600 204.617 C 183.040 204.417,184.421 204.050,185.668 203.801 L 187.937 203.348 186.668 205.122 C 185.971 206.097,185.220 207.189,185.000 207.548 C 184.780 207.906,184.501 208.290,184.379 208.400 C 184.258 208.510,183.538 209.500,182.779 210.600 C 182.021 211.700,181.310 212.690,181.200 212.800 C 180.753 213.247,178.400 216.747,178.400 216.965 C 178.400 217.094,178.085 217.539,177.700 217.952 C 177.315 218.366,176.640 219.183,176.200 219.766 C 175.760 220.350,174.905 221.401,174.300 222.103 C 173.695 222.804,173.200 223.502,173.200 223.652 C 173.200 224.017,168.005 229.200,167.639 229.200 C 167.482 229.200,166.435 230.055,165.313 231.100 C 163.479 232.808,161.911 234.171,158.983 236.600 C 158.453 237.040,157.366 237.850,156.569 238.400 C 155.772 238.950,154.777 239.715,154.360 240.100 C 153.942 240.485,153.498 240.800,153.373 240.800 C 153.249 240.800,152.557 241.250,151.836 241.800 C 151.114 242.350,150.325 242.800,150.082 242.800 C 149.839 242.800,149.496 243.025,149.320 243.300 C 149.036 243.744,145.779 245.453,140.400 247.979 C 139.410 248.444,137.340 249.029,135.800 249.279 C 134.260 249.529,132.879 249.917,132.731 250.141 C 132.345 250.723,120.460 250.735,120.086 250.154 C 119.929 249.909,119.416 249.588,118.947 249.442 C 117.152 248.882,114.800 246.037,114.800 244.426 C 114.800 243.972,114.620 243.600,114.400 243.600 C 113.890 243.600,113.876 239.815,114.382 238.895 C 114.593 238.513,114.971 236.625,115.224 234.700 C 115.476 232.775,115.825 231.200,115.998 231.200 C 116.171 231.200,116.546 230.030,116.830 228.600 C 117.114 227.170,117.465 226.000,117.609 226.000 C 117.754 226.000,118.110 225.010,118.400 223.800 C 118.690 222.590,119.048 221.600,119.195 221.600 C 119.342 221.600,119.672 220.693,119.928 219.586 C 120.183 218.478,120.808 217.173,121.316 216.686 C 124.126 213.990,129.881 208.818,133.205 206.000 C 134.372 205.010,135.866 203.705,136.523 203.100 C 137.181 202.495,137.827 201.995,137.959 201.989 C 138.092 201.983,138.943 201.308,139.850 200.489 C 140.758 199.670,142.075 198.550,142.778 198.000 C 143.481 197.450,144.364 196.730,144.741 196.400 C 145.118 196.070,146.140 195.273,147.013 194.630 C 148.767 193.336,149.590 192.643,150.968 191.300 C 151.476 190.805,152.036 190.400,152.212 190.400 C 152.389 190.400,152.818 190.135,153.166 189.810 C 154.539 188.533,156.719 186.800,156.953 186.800 C 157.089 186.800,157.547 186.485,157.971 186.100 C 160.198 184.079,162.000 183.104,162.000 183.920 M293.785 241.559 C 292.575 242.082,290.800 244.870,290.800 246.247 L 290.800 247.451 293.166 247.280 L 295.532 247.109 296.566 248.746 C 297.599 250.382,297.908 252.302,297.254 253.020 C 297.064 253.229,296.689 254.570,296.422 256.000 C 295.707 259.827,294.191 264.228,293.236 265.253 C 292.776 265.747,292.400 266.387,292.400 266.675 C 292.400 266.964,292.216 267.200,291.990 267.200 C 291.765 267.200,291.409 267.650,291.200 268.200 C 290.991 268.750,290.666 269.200,290.477 269.200 C 290.289 269.200,289.880 269.691,289.568 270.292 C 289.255 270.892,288.325 272.010,287.500 272.775 C 286.675 273.541,286.000 274.303,286.000 274.469 C 286.000 274.634,284.965 275.839,283.700 277.145 C 282.435 278.452,280.485 280.483,279.366 281.660 C 276.850 284.308,274.111 286.798,273.705 286.807 C 273.537 286.811,272.976 287.261,272.458 287.807 C 271.940 288.353,271.308 288.800,271.054 288.800 C 270.800 288.800,270.368 289.160,270.093 289.600 C 269.818 290.040,269.325 290.400,268.997 290.400 C 268.668 290.400,268.400 290.584,268.400 290.810 C 268.400 291.035,267.950 291.391,267.400 291.600 C 266.850 291.809,266.400 292.131,266.400 292.315 C 266.400 292.500,265.777 292.895,265.017 293.193 C 264.256 293.492,263.541 293.976,263.429 294.268 C 263.317 294.561,263.027 294.800,262.786 294.800 C 262.544 294.800,261.757 295.250,261.036 295.800 C 260.314 296.350,259.525 296.800,259.282 296.800 C 259.039 296.800,258.696 297.036,258.520 297.323 C 258.344 297.611,257.615 298.083,256.900 298.372 C 256.185 298.661,255.600 299.033,255.600 299.200 C 255.600 299.367,255.060 299.727,254.400 300.000 C 253.740 300.273,253.200 300.622,253.200 300.774 C 253.200 300.926,252.570 301.298,251.800 301.600 C 251.030 301.902,250.400 302.262,250.400 302.400 C 250.400 302.538,249.770 302.898,249.000 303.200 C 248.230 303.502,247.600 303.878,247.600 304.036 C 247.600 304.193,247.060 304.510,246.400 304.740 C 245.740 304.970,245.200 305.319,245.200 305.516 C 245.200 305.712,244.480 306.089,243.600 306.353 C 242.720 306.616,242.000 306.971,242.000 307.141 C 242.000 307.312,241.370 307.698,240.600 308.000 C 239.830 308.302,239.200 308.667,239.200 308.811 C 239.200 308.954,238.480 309.310,237.600 309.600 C 236.720 309.890,236.000 310.272,236.000 310.448 C 236.000 310.624,235.280 310.984,234.400 311.247 C 233.520 311.511,232.800 311.871,232.800 312.047 C 232.800 312.224,232.080 312.584,231.200 312.847 C 230.320 313.111,229.600 313.464,229.600 313.631 C 229.600 313.799,228.700 314.235,227.600 314.600 C 226.500 314.965,225.600 315.401,225.600 315.569 C 225.600 315.736,224.880 316.089,224.000 316.353 C 223.120 316.616,222.400 316.991,222.400 317.184 C 222.400 317.378,221.862 317.655,221.205 317.799 C 220.547 317.943,219.905 318.230,219.777 318.437 C 219.650 318.643,218.889 319.086,218.087 319.422 C 217.284 319.757,216.532 320.159,216.414 320.316 C 216.296 320.472,214.985 321.230,213.501 322.000 C 212.016 322.770,210.801 323.521,210.801 323.668 C 210.800 323.816,210.261 324.055,209.602 324.199 C 208.944 324.344,208.269 324.684,208.102 324.955 C 207.936 325.225,207.215 325.683,206.500 325.972 C 205.785 326.261,205.200 326.633,205.200 326.800 C 205.200 326.967,204.660 327.327,204.000 327.600 C 203.340 327.873,202.800 328.222,202.800 328.374 C 202.800 328.526,202.170 328.898,201.400 329.200 C 200.630 329.502,200.000 329.900,200.000 330.085 C 200.000 330.269,199.550 330.591,199.000 330.800 C 198.450 331.009,198.000 331.321,198.000 331.492 C 198.000 331.664,197.415 332.057,196.700 332.365 C 195.422 332.915,195.100 333.144,193.300 334.781 C 192.805 335.232,192.294 335.600,192.165 335.600 C 191.939 335.600,189.039 337.574,187.465 338.800 C 185.159 340.597,182.901 342.462,182.158 343.183 C 181.695 343.632,181.154 344.000,180.955 344.000 C 180.757 344.000,180.016 344.630,179.310 345.400 C 178.603 346.170,177.868 346.800,177.677 346.800 C 177.486 346.800,176.571 347.610,175.643 348.600 C 174.715 349.590,173.809 350.400,173.629 350.400 C 172.952 350.400,160.846 362.915,160.470 364.003 C 160.399 364.210,159.810 364.947,159.161 365.641 C 157.759 367.143,153.600 373.378,153.600 373.979 C 153.600 374.211,153.438 374.400,153.239 374.400 C 153.041 374.400,152.690 374.940,152.460 375.600 C 152.230 376.260,151.872 376.800,151.665 376.800 C 151.458 376.800,151.049 377.610,150.757 378.600 C 150.465 379.590,150.103 380.400,149.953 380.400 C 149.803 380.400,149.456 381.345,149.182 382.500 C 148.908 383.655,148.546 384.691,148.378 384.801 C 148.210 384.912,147.857 386.172,147.593 387.601 C 147.329 389.031,146.953 390.513,146.757 390.895 C 146.287 391.809,146.295 400.212,146.767 401.105 C 146.968 401.487,147.338 402.340,147.588 403.000 C 148.186 404.579,150.458 406.272,152.425 406.604 C 153.291 406.751,154.000 407.026,154.000 407.215 C 154.000 407.405,155.123 407.687,156.495 407.843 C 160.579 408.305,162.800 411.063,162.800 415.674 C 162.800 416.707,162.980 417.664,163.200 417.800 C 163.721 418.122,163.721 420.800,163.200 420.800 C 162.980 420.800,162.800 421.700,162.800 422.800 C 162.800 423.900,162.980 424.800,163.200 424.800 C 163.420 424.800,163.600 425.352,163.600 426.026 C 163.600 427.746,164.161 428.606,165.685 429.222 C 166.408 429.515,167.099 429.898,167.221 430.073 C 168.212 431.500,184.723 431.427,186.600 429.986 C 186.820 429.817,188.395 429.446,190.100 429.162 C 191.805 428.877,193.200 428.519,193.200 428.367 C 193.200 428.215,194.370 427.870,195.800 427.600 C 197.230 427.330,198.400 426.973,198.400 426.807 C 198.400 426.640,199.210 426.277,200.200 426.000 C 201.190 425.723,202.000 425.368,202.000 425.211 C 202.000 425.055,202.720 424.711,203.600 424.447 C 204.480 424.184,205.200 423.815,205.200 423.627 C 205.200 423.440,205.609 423.184,206.108 423.059 C 207.440 422.725,211.310 420.158,212.984 418.500 C 213.483 418.005,214.052 417.600,214.249 417.600 C 214.445 417.600,215.184 416.970,215.890 416.200 C 216.597 415.430,217.316 414.796,217.488 414.792 C 217.659 414.788,218.730 413.933,219.867 412.892 C 221.003 411.851,222.680 410.370,223.593 409.600 C 224.506 408.830,225.675 407.834,226.191 407.387 C 226.707 406.940,227.713 406.130,228.426 405.587 C 229.140 405.044,230.305 404.150,231.017 403.600 C 231.728 403.050,232.715 402.330,233.210 402.000 C 233.706 401.670,234.607 400.995,235.213 400.500 C 235.820 400.005,236.495 399.600,236.715 399.600 C 236.935 399.600,237.218 399.330,237.345 399.000 C 237.471 398.670,237.776 398.400,238.022 398.400 C 238.517 398.400,242.122 395.975,242.333 395.500 C 242.407 395.335,242.660 395.200,242.896 395.200 C 243.131 395.200,243.881 394.776,244.562 394.258 C 245.243 393.739,246.205 393.187,246.700 393.031 C 247.195 392.874,247.600 392.590,247.600 392.399 C 247.600 392.208,248.230 391.824,249.000 391.546 C 249.770 391.267,250.400 390.917,250.400 390.768 C 250.400 390.619,250.940 390.273,251.600 390.000 C 252.260 389.727,252.800 389.373,252.800 389.215 C 252.800 389.056,253.520 388.711,254.400 388.447 C 255.280 388.184,256.000 387.809,256.000 387.616 C 256.000 387.422,256.542 387.145,257.204 386.999 C 257.866 386.854,258.631 386.524,258.904 386.267 C 259.177 386.010,260.570 385.382,262.000 384.871 C 266.382 383.306,267.752 382.786,269.000 382.215 C 269.660 381.913,270.875 381.541,271.700 381.389 C 272.525 381.236,273.200 380.980,273.200 380.820 C 273.200 380.659,274.460 380.291,276.000 380.000 C 277.540 379.709,278.800 379.353,278.800 379.208 C 278.800 379.063,280.285 378.706,282.100 378.414 C 283.915 378.122,285.493 377.741,285.608 377.568 C 285.722 377.394,288.152 377.025,291.008 376.748 C 293.863 376.470,296.298 376.103,296.418 375.931 C 296.537 375.760,299.867 375.564,303.818 375.497 C 308.254 375.422,310.656 375.248,310.100 375.041 C 309.605 374.857,309.200 374.562,309.200 374.385 C 309.200 374.208,308.615 373.937,307.900 373.783 C 306.473 373.476,303.478 371.840,302.208 370.675 C 299.721 368.393,299.200 367.820,299.200 367.367 C 299.200 367.092,299.007 366.802,298.770 366.723 C 297.312 366.237,298.118 360.099,300.021 357.200 C 300.238 356.870,300.637 356.146,300.908 355.590 C 301.401 354.577,301.615 354.310,304.204 351.466 C 304.972 350.622,305.600 349.767,305.600 349.566 C 305.600 349.085,291.003 349.087,290.095 349.568 C 289.713 349.770,286.610 350.147,283.200 350.405 C 279.790 350.662,276.940 351.037,276.867 351.237 C 276.793 351.437,276.276 351.600,275.716 351.600 C 274.179 351.600,267.057 352.852,266.600 353.203 C 266.380 353.371,265.390 353.639,264.400 353.796 C 263.410 353.954,262.060 354.317,261.400 354.604 C 260.740 354.890,259.666 355.245,259.014 355.392 C 258.362 355.538,257.102 355.989,256.214 356.393 C 255.326 356.797,253.925 357.254,253.100 357.408 C 252.275 357.563,251.600 357.820,251.600 357.981 C 251.600 358.141,250.610 358.494,249.400 358.765 C 248.190 359.036,247.200 359.396,247.200 359.565 C 247.200 359.734,246.210 360.110,245.000 360.400 C 243.790 360.690,242.800 361.045,242.800 361.188 C 242.800 361.332,241.900 361.679,240.800 361.961 C 239.700 362.243,238.800 362.617,238.800 362.792 C 238.800 362.968,238.176 363.228,237.413 363.371 C 236.650 363.514,235.790 363.868,235.501 364.156 C 235.212 364.445,234.037 364.922,232.888 365.216 C 231.740 365.510,230.800 365.868,230.800 366.012 C 230.800 366.155,230.080 366.510,229.200 366.800 C 228.320 367.090,227.600 367.456,227.600 367.612 C 227.600 367.768,226.790 368.123,225.800 368.400 C 224.810 368.677,224.000 369.061,224.000 369.252 C 224.000 369.443,223.835 369.600,223.633 369.600 C 222.656 369.600,217.380 372.421,209.800 376.996 C 208.920 377.527,207.795 378.179,207.300 378.445 C 206.805 378.711,206.400 379.080,206.400 379.264 C 206.400 379.449,206.192 379.600,205.938 379.600 C 205.684 379.600,204.919 380.018,204.238 380.529 C 203.557 381.041,202.685 381.575,202.300 381.717 C 201.915 381.859,201.600 382.161,201.600 382.387 C 201.600 382.614,201.332 382.800,201.003 382.800 C 200.675 382.800,200.182 383.160,199.907 383.600 C 199.632 384.040,199.226 384.400,199.004 384.400 C 198.610 384.401,197.442 385.308,194.995 387.514 C 192.266 389.975,183.439 396.191,182.843 396.072 C 181.562 395.818,178.915 394.373,178.124 393.496 C 176.460 391.653,175.314 388.000,176.400 388.000 C 176.620 388.000,176.800 387.616,176.800 387.146 C 176.800 386.012,177.655 383.200,177.999 383.200 C 178.149 383.200,178.510 382.480,178.800 381.600 C 179.090 380.720,179.435 380.000,179.566 380.000 C 179.697 380.000,180.054 379.438,180.358 378.750 C 180.990 377.322,182.934 375.338,184.047 374.985 C 184.461 374.854,184.800 374.600,184.800 374.422 C 184.800 374.243,185.340 373.873,186.000 373.600 C 186.660 373.327,187.200 372.978,187.200 372.826 C 187.200 372.674,187.830 372.302,188.600 372.000 C 189.370 371.698,190.000 371.322,190.000 371.164 C 190.000 371.007,190.540 370.690,191.200 370.460 C 191.860 370.230,192.400 369.881,192.400 369.684 C 192.400 369.488,193.120 369.111,194.000 368.847 C 194.880 368.584,195.600 368.207,195.600 368.010 C 195.600 367.813,196.230 367.424,197.000 367.146 C 197.770 366.867,198.400 366.524,198.400 366.384 C 198.400 366.243,199.165 365.884,200.100 365.585 C 201.035 365.286,202.430 364.733,203.200 364.355 C 206.075 362.945,208.374 362.000,208.929 362.000 C 209.244 362.000,209.708 361.752,209.960 361.448 C 210.212 361.145,210.954 360.789,211.609 360.658 C 212.264 360.527,213.571 360.069,214.514 359.639 C 215.457 359.210,216.717 358.736,217.314 358.586 C 217.911 358.436,218.400 358.167,218.400 357.988 C 218.400 357.810,218.985 357.542,219.700 357.393 C 220.415 357.243,221.360 356.899,221.800 356.627 C 222.240 356.355,223.455 355.883,224.500 355.579 C 225.545 355.274,226.400 354.885,226.400 354.713 C 226.400 354.541,226.625 354.398,226.900 354.396 C 227.175 354.394,228.300 353.950,229.400 353.409 C 230.500 352.868,231.580 352.414,231.800 352.400 C 232.020 352.386,233.100 351.932,234.200 351.391 C 235.300 350.850,236.425 350.406,236.700 350.404 C 236.975 350.402,237.200 350.227,237.200 350.016 C 237.200 349.805,237.920 349.416,238.800 349.153 C 239.680 348.889,240.400 348.536,240.400 348.369 C 240.400 348.201,241.300 347.765,242.400 347.400 C 243.500 347.035,244.400 346.570,244.400 346.368 C 244.400 346.166,244.625 345.996,244.900 345.992 C 245.175 345.988,246.570 345.270,248.000 344.398 C 249.430 343.525,251.095 342.611,251.700 342.366 C 252.305 342.122,252.800 341.781,252.800 341.609 C 252.800 341.438,253.340 341.073,254.000 340.800 C 254.660 340.527,255.200 340.167,255.200 340.000 C 255.200 339.833,255.740 339.473,256.400 339.200 C 257.060 338.927,257.600 338.575,257.600 338.419 C 257.600 338.263,258.090 337.880,258.688 337.568 C 259.688 337.046,260.297 336.575,262.034 334.981 C 262.382 334.662,262.817 334.400,263.000 334.400 C 263.183 334.400,263.618 334.135,263.966 333.810 C 265.310 332.560,267.516 330.800,267.740 330.800 C 267.951 330.800,268.742 330.128,271.809 327.341 C 272.329 326.868,272.921 326.418,273.125 326.341 C 273.586 326.166,276.724 323.500,278.825 321.500 C 279.691 320.675,280.504 320.000,280.632 320.000 C 280.760 320.000,281.944 318.920,283.264 317.600 C 284.584 316.280,285.769 315.200,285.898 315.200 C 286.027 315.200,287.408 313.949,288.966 312.421 C 302.924 298.732,302.368 299.331,302.877 297.429 C 303.146 296.423,303.509 295.600,303.683 295.600 C 304.123 295.600,304.082 292.942,303.629 292.095 C 303.425 291.713,303.052 289.783,302.801 287.807 C 302.550 285.831,302.195 284.031,302.014 283.807 C 301.616 283.317,300.800 278.217,300.800 276.223 C 300.800 275.441,300.620 274.800,300.400 274.800 C 299.913 274.800,299.860 270.521,300.345 270.333 C 300.809 270.154,301.506 251.073,301.204 246.782 C 300.866 241.975,297.808 239.822,293.785 241.559 M171.600 383.767 C 171.600 384.078,171.375 384.408,171.100 384.500 C 170.439 384.720,170.388 393.494,171.046 393.915 C 171.291 394.072,171.629 394.650,171.796 395.200 C 172.119 396.265,175.030 399.296,176.137 399.721 C 177.236 400.142,176.887 400.748,175.380 401.030 C 174.600 401.177,173.725 401.532,173.436 401.821 C 171.999 403.258,158.642 403.466,157.608 402.068 C 157.493 401.913,156.505 401.555,155.411 401.271 C 153.035 400.655,152.787 400.463,153.703 399.950 C 154.086 399.736,154.400 399.377,154.400 399.153 C 154.400 398.930,154.850 398.157,155.400 397.436 C 155.950 396.714,156.400 395.960,156.400 395.758 C 156.400 395.557,156.760 395.168,157.200 394.893 C 157.640 394.618,158.000 394.212,158.000 393.991 C 158.000 393.272,161.698 389.884,164.991 387.588 C 166.085 386.825,167.165 386.062,167.391 385.893 C 171.128 383.093,171.600 382.854,171.600 383.767 " stroke="none" fill="#cf2334" fill-rule="evenodd"></path><path id="path1" d="M314.310 408.715 C 311.967 410.422,312.242 411.386,316.367 415.914 C 316.825 416.417,317.200 416.922,317.200 417.038 C 317.200 417.286,319.607 420.416,320.244 420.996 C 321.327 421.981,321.211 422.800,319.987 422.800 C 319.334 422.800,318.800 422.937,318.800 423.105 C 318.800 423.273,317.866 423.633,316.725 423.904 C 315.583 424.175,314.548 424.550,314.425 424.738 C 314.301 424.926,313.780 425.302,313.266 425.572 C 312.053 426.212,310.400 427.653,310.400 428.072 C 310.400 428.252,310.085 428.747,309.700 429.171 C 308.162 430.867,307.937 431.297,307.495 433.407 C 307.242 434.613,306.892 435.600,306.717 435.600 C 306.543 435.600,306.400 436.860,306.400 438.400 C 306.400 439.940,306.557 441.200,306.748 441.200 C 306.940 441.200,307.215 442.092,307.360 443.183 C 307.505 444.274,307.888 445.431,308.212 445.754 C 308.535 446.078,308.802 446.491,308.805 446.671 C 308.812 447.070,310.266 448.973,311.500 450.198 C 311.995 450.690,312.400 451.236,312.400 451.412 C 312.400 452.171,317.438 457.200,318.199 457.200 C 318.529 457.200,318.800 457.352,318.800 457.537 C 318.800 457.932,321.512 458.800,322.746 458.800 C 323.216 458.800,323.600 458.980,323.600 459.200 C 323.600 459.429,324.800 459.600,326.400 459.600 C 327.940 459.600,329.200 459.456,329.200 459.280 C 329.200 459.104,330.280 458.737,331.600 458.464 C 332.920 458.192,334.000 457.796,334.000 457.584 C 334.000 457.373,334.268 457.200,334.597 457.200 C 334.925 457.200,335.418 456.840,335.693 456.400 C 335.968 455.960,336.403 455.600,336.661 455.600 C 337.089 455.600,337.823 454.817,339.681 452.378 C 340.055 451.886,340.483 450.925,340.631 450.242 C 340.779 449.559,341.103 448.872,341.350 448.715 C 341.961 448.327,341.969 438.880,341.358 438.485 C 341.115 438.328,340.696 437.525,340.427 436.700 C 340.158 435.875,339.784 435.200,339.596 435.200 C 339.408 435.200,339.146 434.860,339.014 434.445 C 338.882 434.029,338.375 433.237,337.887 432.683 C 337.399 432.130,336.640 431.200,336.200 430.617 C 335.760 430.033,334.815 428.921,334.100 428.144 C 333.385 427.367,332.800 426.568,332.800 426.369 C 332.800 426.170,332.440 425.782,332.000 425.507 C 331.560 425.232,331.200 424.807,331.200 424.562 C 331.200 424.317,330.750 423.631,330.200 423.038 C 329.650 422.444,329.200 421.839,329.200 421.693 C 329.200 421.548,328.836 421.062,328.391 420.614 C 327.946 420.166,327.043 419.080,326.385 418.200 C 325.726 417.320,324.875 416.185,324.494 415.678 C 324.112 415.171,323.215 414.121,322.500 413.344 C 321.785 412.567,321.200 411.836,321.200 411.718 C 321.200 411.601,320.654 410.852,319.986 410.053 C 319.318 409.254,318.591 408.375,318.370 408.100 C 317.713 407.282,315.901 407.556,314.310 408.715 M82.400 418.317 C 82.400 418.491,81.590 418.851,80.600 419.116 C 79.610 419.380,78.800 419.778,78.800 419.998 C 78.800 420.219,78.545 420.400,78.234 420.400 C 77.923 420.400,77.158 420.962,76.534 421.650 C 75.910 422.337,74.995 423.269,74.500 423.722 C 74.005 424.174,73.600 424.692,73.600 424.872 C 73.600 425.052,73.285 425.539,72.900 425.952 C 72.515 426.366,71.877 427.131,71.483 427.652 C 71.089 428.174,70.324 429.140,69.783 429.800 C 69.243 430.460,68.801 431.182,68.800 431.404 C 68.800 431.626,68.440 432.032,68.000 432.307 C 67.560 432.582,67.200 432.985,67.200 433.203 C 67.200 433.422,66.917 433.915,66.571 434.300 C 65.077 435.962,64.001 437.429,64.000 437.804 C 64.000 438.026,63.640 438.432,63.200 438.707 C 62.760 438.982,62.400 439.456,62.400 439.761 C 62.400 440.065,62.153 440.409,61.851 440.525 C 61.550 440.641,61.176 441.243,61.020 441.864 C 60.864 442.484,60.579 443.090,60.385 443.209 C 59.207 443.937,59.146 454.729,60.315 455.581 C 60.481 455.701,60.837 456.302,61.106 456.915 C 61.376 457.528,61.822 458.300,62.098 458.630 C 63.625 460.456,65.130 462.000,65.384 462.000 C 65.543 462.000,66.125 462.355,66.677 462.789 C 67.230 463.224,68.293 463.694,69.041 463.834 C 69.788 463.974,70.400 464.249,70.400 464.445 C 70.400 464.640,72.380 464.800,74.800 464.800 C 77.220 464.800,79.200 464.636,79.200 464.435 C 79.200 464.234,79.920 463.949,80.800 463.800 C 81.680 463.651,82.535 463.320,82.700 463.064 C 82.865 462.808,83.529 462.329,84.175 461.999 C 88.073 460.012,88.597 454.804,84.900 454.800 C 84.625 454.800,84.400 454.620,84.400 454.400 C 84.400 453.555,83.277 454.064,81.770 455.593 C 80.907 456.470,79.975 457.190,79.700 457.193 C 79.425 457.197,79.200 457.367,79.200 457.572 C 79.200 458.790,71.283 458.850,70.878 457.635 C 70.799 457.396,70.494 457.200,70.201 457.200 C 69.908 457.200,68.949 456.383,68.070 455.385 C 64.231 451.023,65.196 445.539,70.879 439.425 C 71.276 438.998,71.600 438.503,71.600 438.325 C 71.600 438.146,71.915 437.661,72.300 437.248 C 72.685 436.834,73.323 436.069,73.717 435.548 C 74.111 435.026,74.876 434.060,75.417 433.400 C 75.957 432.740,76.399 432.018,76.400 431.796 C 76.400 431.574,76.760 431.168,77.200 430.893 C 77.640 430.618,78.000 430.215,78.000 429.997 C 78.000 429.778,78.315 429.267,78.700 428.861 C 79.085 428.454,79.740 427.644,80.156 427.061 C 80.572 426.477,81.148 426.000,81.436 426.000 C 81.724 426.000,82.104 425.752,82.280 425.449 C 83.073 424.084,90.280 423.841,90.722 425.165 C 90.801 425.404,91.084 425.600,91.350 425.600 C 92.398 425.600,94.721 428.356,95.403 430.409 C 96.358 433.284,95.635 438.783,94.300 438.797 C 93.519 438.805,94.088 440.985,95.100 441.866 C 96.993 443.513,97.143 443.600,98.095 443.600 C 99.105 443.600,99.488 443.163,100.969 440.330 C 102.532 437.338,102.716 427.200,101.207 427.200 C 101.031 427.200,100.785 426.795,100.660 426.300 C 100.303 424.884,97.473 421.500,95.819 420.511 C 94.140 419.507,92.401 418.800,91.613 418.800 C 91.166 418.800,90.800 418.620,90.800 418.400 C 90.800 418.159,89.133 418.000,86.600 418.000 C 84.290 418.000,82.400 418.143,82.400 418.317 M325.915 429.945 C 325.998 430.195,326.298 430.400,326.581 430.400 C 327.214 430.400,330.800 433.933,330.800 434.556 C 330.800 434.805,331.160 435.232,331.600 435.507 C 332.040 435.782,332.400 436.185,332.400 436.403 C 332.400 436.622,332.715 437.147,333.100 437.571 C 335.166 439.847,335.600 440.889,335.600 443.566 C 335.600 445.515,335.001 447.762,334.228 448.716 C 332.624 450.694,331.436 451.647,330.022 452.089 C 329.130 452.367,328.400 452.731,328.400 452.897 C 328.400 453.064,327.500 453.200,326.400 453.200 C 325.300 453.200,324.400 453.059,324.400 452.887 C 324.400 452.715,323.635 452.339,322.700 452.050 C 321.765 451.762,320.550 450.999,320.000 450.355 C 319.450 449.711,318.415 448.542,317.700 447.758 C 316.985 446.973,316.400 446.177,316.400 445.988 C 316.400 445.800,316.085 445.410,315.700 445.123 C 315.315 444.835,314.730 444.060,314.401 443.400 C 314.071 442.740,313.621 442.072,313.401 441.915 C 312.845 441.519,312.885 435.644,313.446 435.285 C 313.691 435.128,314.031 434.550,314.202 434.000 C 314.578 432.783,316.059 431.347,318.200 430.123 C 319.958 429.117,325.596 428.988,325.915 429.945 M111.600 434.371 C 111.600 434.796,111.358 435.385,111.062 435.681 C 110.765 435.978,110.297 437.160,110.022 438.310 C 109.746 439.459,109.387 440.400,109.224 440.400 C 109.061 440.400,108.706 441.390,108.435 442.600 C 108.164 443.810,107.798 444.800,107.621 444.800 C 107.445 444.800,107.192 445.340,107.060 446.000 C 106.928 446.660,106.472 447.965,106.046 448.900 C 105.621 449.835,105.146 451.275,104.992 452.100 C 104.837 452.925,104.569 453.600,104.395 453.600 C 104.222 453.600,103.854 454.541,103.578 455.690 C 103.303 456.840,102.851 458.006,102.575 458.282 C 102.299 458.558,101.951 459.508,101.801 460.392 C 101.652 461.276,101.383 462.000,101.205 462.000 C 101.026 462.000,100.656 462.945,100.382 464.100 C 100.108 465.255,99.710 466.313,99.498 466.450 C 99.009 466.768,98.989 474.813,99.476 475.150 C 99.676 475.287,100.062 476.165,100.336 477.100 C 100.609 478.035,101.005 478.800,101.216 478.800 C 101.427 478.800,101.600 479.051,101.600 479.357 C 101.600 480.384,106.086 484.394,107.790 484.891 C 108.676 485.150,109.528 485.550,109.685 485.781 C 110.080 486.360,119.536 486.343,119.915 485.762 C 120.072 485.520,120.682 485.205,121.272 485.061 C 121.862 484.917,122.614 484.529,122.943 484.199 C 123.273 483.870,123.691 483.597,123.871 483.594 C 124.443 483.583,127.870 479.839,128.168 478.900 C 128.325 478.405,128.593 478.000,128.763 478.000 C 128.933 478.000,129.406 476.830,129.815 475.400 C 130.224 473.970,130.674 472.800,130.815 472.800 C 130.957 472.800,131.310 471.810,131.600 470.600 C 131.890 469.390,132.250 468.400,132.400 468.400 C 132.550 468.400,132.910 467.410,133.200 466.200 C 133.490 464.990,133.846 464.000,133.992 464.000 C 134.137 464.000,134.500 463.100,134.800 462.000 C 135.100 460.900,135.463 460.000,135.608 460.000 C 135.754 460.000,136.110 459.010,136.400 457.800 C 136.690 456.590,137.059 455.600,137.219 455.600 C 137.380 455.600,137.634 454.946,137.784 454.146 C 137.934 453.346,138.404 452.044,138.828 451.252 C 139.253 450.460,139.600 449.574,139.600 449.284 C 139.600 448.994,139.971 447.942,140.424 446.948 C 141.397 444.811,141.316 443.468,140.200 443.258 C 139.760 443.175,139.279 442.915,139.131 442.681 C 138.984 442.446,138.008 442.242,136.962 442.227 L 135.062 442.200 134.500 444.396 C 134.190 445.603,133.794 446.683,133.619 446.796 C 133.444 446.908,133.170 447.630,133.011 448.400 C 132.852 449.170,132.476 450.188,132.176 450.663 C 131.876 451.137,131.422 452.352,131.168 453.363 C 130.913 454.373,130.575 455.200,130.416 455.200 C 130.257 455.200,129.906 456.190,129.635 457.400 C 129.364 458.610,129.004 459.600,128.835 459.600 C 128.666 459.600,128.298 460.623,128.018 461.874 C 127.739 463.124,127.276 464.381,126.991 464.666 C 126.706 464.951,126.351 465.908,126.201 466.792 C 126.052 467.676,125.778 468.400,125.594 468.400 C 125.409 468.400,125.036 469.390,124.765 470.600 C 124.494 471.810,124.150 472.800,124.000 472.800 C 123.849 472.800,123.511 473.520,123.247 474.400 C 122.984 475.280,122.624 476.000,122.448 476.000 C 122.272 476.000,121.923 476.450,121.673 477.000 C 121.422 477.550,120.952 478.000,120.628 478.000 C 120.305 478.000,119.896 478.241,119.720 478.536 C 118.641 480.342,111.926 480.476,109.781 478.733 C 106.106 475.748,104.071 470.125,105.877 467.948 C 106.132 467.641,106.555 466.537,106.818 465.495 C 107.080 464.453,107.434 463.600,107.603 463.600 C 107.772 463.600,108.037 462.925,108.192 462.100 C 108.346 461.275,108.811 459.855,109.226 458.945 C 109.640 458.035,110.201 456.460,110.472 455.445 C 110.744 454.430,111.080 453.600,111.219 453.600 C 111.358 453.600,111.710 452.610,112.000 451.400 C 112.290 450.190,112.663 449.200,112.829 449.200 C 112.994 449.200,113.252 448.476,113.401 447.592 C 113.551 446.708,113.899 445.758,114.175 445.482 C 114.451 445.206,114.903 444.040,115.178 442.890 C 115.454 441.741,115.811 440.800,115.971 440.800 C 116.333 440.800,117.200 437.138,117.200 435.609 C 117.200 434.304,115.777 433.600,113.140 433.600 C 111.886 433.600,111.600 433.743,111.600 434.371 M282.600 445.049 C 280.570 445.328,278.000 446.088,278.000 446.409 C 278.000 446.576,277.595 446.815,277.099 446.939 C 275.788 447.268,272.097 451.095,271.580 452.659 C 271.337 453.397,270.987 454.000,270.802 454.000 C 270.299 454.000,269.600 457.720,269.600 460.400 C 269.600 463.049,270.297 466.800,270.789 466.800 C 270.966 466.800,271.228 467.424,271.371 468.187 C 271.514 468.950,271.860 469.805,272.139 470.087 C 272.418 470.369,272.884 471.455,273.175 472.500 C 273.466 473.545,273.848 474.400,274.025 474.400 C 274.202 474.400,274.459 474.756,274.597 475.190 C 274.814 475.875,276.386 477.604,278.400 479.372 C 278.730 479.662,279.450 480.036,280.000 480.203 C 280.550 480.371,281.113 480.684,281.251 480.899 C 282.163 482.317,294.400 482.223,294.400 480.798 C 294.400 480.613,294.985 480.268,295.700 480.030 C 297.715 479.361,300.982 475.998,301.460 474.100 C 301.585 473.605,301.832 473.200,302.010 473.200 C 302.518 473.200,303.200 469.418,303.200 466.600 C 303.200 463.785,302.518 460.000,302.011 460.000 C 301.834 460.000,301.572 459.376,301.429 458.613 C 301.286 457.850,300.944 456.995,300.670 456.713 C 300.396 456.431,299.939 455.412,299.654 454.450 C 299.081 452.506,299.040 452.447,296.156 449.402 C 295.031 448.215,293.636 447.124,293.056 446.978 C 292.475 446.833,292.000 446.560,292.000 446.372 C 292.000 445.602,285.368 444.669,282.600 445.049 M168.110 448.724 C 167.748 448.954,167.492 453.651,167.130 466.717 C 166.861 476.443,166.496 484.400,166.320 484.400 C 166.144 484.400,166.000 487.432,166.000 491.137 L 166.000 497.874 172.664 498.137 C 186.542 498.685,194.000 498.246,194.000 496.882 C 194.000 496.724,194.495 496.365,195.100 496.084 C 195.705 495.803,196.740 494.854,197.400 493.975 C 198.060 493.097,198.792 492.158,199.028 491.889 C 200.711 489.965,200.818 478.000,199.153 478.000 C 198.959 478.000,198.797 477.775,198.794 477.500 C 198.790 477.225,197.899 476.135,196.812 475.079 C 194.946 473.264,194.523 471.200,196.016 471.200 C 196.174 471.200,196.540 470.615,196.829 469.900 C 197.118 469.185,197.545 468.472,197.777 468.315 C 198.360 467.921,198.346 458.466,197.762 458.085 C 197.520 457.928,197.212 457.350,197.076 456.800 C 196.527 454.576,193.765 451.824,190.200 449.950 C 188.184 448.890,169.482 447.852,168.110 448.724 M211.300 448.689 L 210.000 448.851 210.000 453.025 C 210.000 455.321,210.149 457.200,210.332 457.200 C 210.514 457.200,210.902 462.420,211.193 468.800 C 211.484 475.180,211.849 480.400,212.004 480.400 C 212.159 480.400,212.407 483.595,212.555 487.500 C 212.703 491.405,212.929 495.365,213.057 496.300 L 213.291 498.000 216.245 498.000 L 219.200 498.000 219.200 493.600 C 219.200 491.180,219.051 489.200,218.870 489.200 C 218.688 489.200,218.307 484.025,218.023 477.700 C 217.739 471.375,217.392 466.020,217.253 465.800 C 217.114 465.580,216.818 461.747,216.595 457.282 C 216.115 447.662,216.361 448.061,211.300 448.689 M286.400 451.148 C 286.400 451.339,287.006 451.594,287.747 451.714 C 289.623 452.018,292.215 453.948,292.832 455.500 C 293.117 456.215,293.467 456.800,293.611 456.800 C 293.754 456.800,294.111 457.565,294.403 458.500 C 294.695 459.435,295.289 460.802,295.723 461.538 C 298.406 466.086,295.696 474.161,291.184 475.063 C 290.533 475.193,290.000 475.457,290.000 475.650 C 290.000 475.843,288.920 476.000,287.600 476.000 C 286.280 476.000,285.200 475.856,285.200 475.680 C 285.200 475.505,284.555 475.128,283.768 474.843 C 282.106 474.242,280.084 472.274,279.747 470.930 C 279.618 470.419,279.373 470.000,279.201 470.000 C 279.029 470.000,278.649 469.190,278.357 468.200 C 278.065 467.210,277.705 466.400,277.557 466.400 C 277.409 466.400,277.049 465.590,276.757 464.600 C 276.465 463.610,276.085 462.800,275.913 462.800 C 275.741 462.800,275.600 461.810,275.600 460.600 C 275.600 459.390,275.757 458.400,275.950 458.400 C 276.143 458.400,276.415 457.827,276.555 457.127 C 276.887 455.467,279.930 452.551,282.007 451.902 C 282.883 451.629,283.600 451.269,283.600 451.103 C 283.600 450.936,284.230 450.800,285.000 450.800 C 285.770 450.800,286.400 450.956,286.400 451.148 M186.300 455.439 C 187.235 455.555,188.000 455.824,188.000 456.037 C 188.000 456.250,188.315 456.541,188.700 456.683 C 193.688 458.518,192.782 467.954,187.423 469.991 C 186.278 470.426,174.498 470.566,173.433 470.157 C 172.745 469.893,172.548 468.400,173.200 468.400 C 173.451 468.400,173.600 465.856,173.600 461.568 L 173.600 454.736 179.100 454.983 C 182.125 455.119,185.365 455.324,186.300 455.439 M240.400 457.565 C 240.400 457.766,239.685 458.050,238.812 458.198 C 237.938 458.346,236.785 458.811,236.249 459.233 C 235.713 459.655,235.151 460.000,235.001 460.000 C 234.612 460.000,231.509 463.302,230.826 464.442 C 229.384 466.851,229.046 467.979,228.873 470.955 C 228.672 474.432,229.475 482.000,230.045 482.000 C 230.240 482.000,230.400 482.513,230.400 483.140 C 230.400 484.426,231.141 486.800,231.541 486.800 C 231.686 486.800,232.060 487.377,232.372 488.082 C 232.684 488.786,233.493 489.871,234.170 490.493 C 234.846 491.114,235.671 491.873,236.003 492.179 C 236.335 492.486,237.100 492.860,237.703 493.011 C 238.306 493.163,238.800 493.419,238.800 493.580 C 238.800 494.183,242.000 494.800,245.127 494.800 C 248.366 494.800,252.400 494.170,252.400 493.664 C 252.400 493.516,252.963 493.146,253.652 492.841 C 255.037 492.228,258.060 489.206,258.875 487.619 C 259.163 487.058,259.505 486.510,259.635 486.400 C 260.998 485.243,260.986 471.046,259.620 470.000 C 259.477 469.890,259.145 468.849,258.884 467.688 C 258.424 465.645,258.202 465.227,256.700 463.571 C 256.315 463.147,256.000 462.652,256.000 462.472 C 256.000 462.053,254.347 460.612,253.134 459.972 C 252.620 459.702,252.110 459.369,252.000 459.232 C 251.606 458.743,249.544 458.000,248.581 458.000 C 248.042 458.000,247.600 457.820,247.600 457.600 C 247.600 457.363,246.133 457.200,244.000 457.200 C 242.020 457.200,240.400 457.364,240.400 457.565 M248.465 464.531 C 248.671 464.899,249.025 465.200,249.251 465.200 C 249.904 465.200,251.863 467.335,252.200 468.415 C 252.369 468.957,252.665 469.502,252.858 469.626 C 253.051 469.751,253.423 471.326,253.686 473.126 C 253.948 474.927,254.306 476.400,254.481 476.400 C 254.657 476.400,254.800 477.750,254.800 479.400 C 254.800 481.050,254.632 482.400,254.427 482.400 C 254.222 482.400,253.929 482.805,253.777 483.300 C 251.844 489.589,239.276 490.006,237.355 483.844 C 237.211 483.380,236.920 482.889,236.710 482.754 C 236.499 482.619,236.140 481.044,235.912 479.254 C 235.683 477.464,235.340 476.000,235.148 476.000 C 234.957 476.000,234.800 474.650,234.800 473.000 C 234.800 471.350,234.960 470.000,235.157 470.000 C 235.353 470.000,235.618 469.581,235.747 469.070 C 236.027 467.954,237.774 466.063,239.871 464.606 C 241.748 463.301,247.748 463.248,248.465 464.531 M188.348 477.451 C 191.160 478.371,193.200 479.793,193.200 480.833 C 193.200 481.003,193.485 481.427,193.832 481.775 C 194.624 482.566,194.687 486.891,193.921 487.823 C 193.257 488.631,190.634 491.257,189.889 491.860 C 189.164 492.445,187.759 492.524,179.300 492.456 L 172.400 492.400 172.400 488.662 C 172.400 486.606,172.516 483.034,172.657 480.723 L 172.914 476.521 179.757 476.700 C 184.151 476.815,187.226 477.083,188.348 477.451 " stroke="none" fill="#34404e" fill-rule="evenodd"></path></g></svg>